<?xml version="1.0" encoding="UTF-8" standalone="no"?>
<svg
   xmlns:dc="http://purl.org/dc/elements/1.1/"
   xmlns:cc="http://creativecommons.org/ns#"
   xmlns:rdf="http://www.w3.org/1999/02/22-rdf-syntax-ns#"
   xmlns:svg="http://www.w3.org/2000/svg"
   xmlns="http://www.w3.org/2000/svg"
   xmlns:sodipodi="http://sodipodi.sourceforge.net/DTD/sodipodi-0.dtd"
   xmlns:inkscape="http://www.inkscape.org/namespaces/inkscape"
   version="1.0"
   width="1093.000000pt"
   height="1280.000000pt"
   viewBox="0 0 1093.000000 1280.000000"
   preserveAspectRatio="xMidYMid meet"
   id="svg26"
   sodipodi:docname="1stheadshot.svg"
   inkscape:version="0.92.3 (2405546, 2018-03-11)">
  <defs
     id="defs30" />
  <sodipodi:namedview
     pagecolor="#ffffff"
     bordercolor="#666666"
     borderopacity="1"
     objecttolerance="10"
     gridtolerance="10"
     guidetolerance="10"
     inkscape:pageopacity="0"
     inkscape:pageshadow="2"
     inkscape:window-width="1920"
     inkscape:window-height="1023"
     id="namedview28"
     showgrid="false"
     inkscape:zoom="0.48925781"
     inkscape:cx="726.62275"
     inkscape:cy="853.33333"
     inkscape:window-x="0"
     inkscape:window-y="0"
     inkscape:window-maximized="1"
     inkscape:current-layer="svg26" />
  <metadata
     id="metadata10">
Created by potrace 1.15, written by Peter Selinger 2001-2017
<rdf:RDF>
  <cc:Work
     rdf:about="">
    <dc:format>image/svg+xml</dc:format>
    <dc:type
       rdf:resource="http://purl.org/dc/dcmitype/StillImage" />
  </cc:Work>
</rdf:RDF>
</metadata>
  <path
     inkscape:connector-curvature="0"
     style="fill:#040000;fill-opacity:1;stroke:none;stroke-width:0.1"
     id="path12"
     d="m 539,0.6 c -1.9,0.2 -8.4,0.9 -14.5,1.5 -14.5,1.4 -38.2,6.1 -52.4,10.4 -36.7,11.2 -67,27.9 -95.6,52.6 -40.3,34.9 -61.7,71.3 -73.9,125.9 -5.8,26.3 -9.8,65 -9.7,95.6 v 20 l -2.9,6.3 c -1.7,3.5 -6.5,12 -10.8,18.9 -21.7,35.2 -38.6,72.8 -44.8,99.7 -2.6,11.4 -2.5,26.6 0.2,32.5 4.2,9.1 11.1,14.8 28.3,23.5 5.2,2.6 12.3,6.5 15.8,8.7 5.4,3.4 6.3,4.4 6.9,7.6 0.3,2 2.8,13.4 5.4,25.2 9.2,40.5 9.4,54.4 1.1,70.8 -1.6,3.2 -3.7,8.4 -4.6,11.5 -1.5,5.3 -1.5,6.1 0,11.4 2,6.8 1.5,11 -3.2,28.2 -7.1,25.8 -10.2,54.5 -8.4,76.2 1.1,12.8 4.2,30.2 6.7,37.1 1.3,3.7 1.3,3.9 -1.1,4.8 -4,1.5 -5.8,11.8 -3.4,20.5 0.6,2.2 4,9.9 7.5,17.1 3.5,7.1 6.7,14.5 7,16.2 0.8,3.8 3.7,6.2 7.6,6.2 3.4,0 3.4,0.3 0.6,4 -1.3,1.9 -1.8,3.4 -1.2,3.9 0.5,0.5 6.3,3.2 12.8,6.1 8.2,3.6 13.7,5.4 17.7,5.7 3.3,0.3 5.9,0.9 5.9,1.2 0,0.4 -1.1,5.6 -2.5,11.6 -9.6,42.3 -12.9,81 -12.3,142.5 0.4,37.5 0.6,41.1 2.6,48.2 3.3,12 6.6,18.1 13,23.8 5.4,4.8 17.9,12 20.8,12 1.2,0 1.4,-9.3 1.4,-55.5 V 977 h 18.5 18.5 v 55.1 c 0,37.5 0.3,55.7 1.1,57.1 0.6,1.1 2.7,2.7 4.7,3.6 l 3.7,1.6 -5.5,0.7 c -3,0.4 -40.9,0.7 -84.2,0.8 L 237,1096 V 1036.5 977 h 41.6 c 40.8,0 41.5,0 40.9,-2 -0.3,-1 -3.9,-9.3 -7.9,-18.2 L 304.2,940.5 270.6,940.2 237,940 v -22 -22 h 42.6 c 40.2,0 42.6,-0.1 42,-1.8 -0.4,-0.9 -3.7,-9.2 -7.3,-18.5 l -6.7,-16.7 -54,0.2 -54.1,0.3 -0.3,40.3 L 199,940 H 184.5 170 v -88.1 -88 l -2.2,0.7 c -3.6,1.1 -12.4,7.2 -18.6,12.8 -7,6.5 -10.6,12 -14,22.1 l -2.7,8 -0.3,66.3 -0.3,66.2 H 113.5 95 V 895.5 C 95,871 94.7,851 94.3,851.1 c -0.5,0 -9,9.1 -19,20.2 L 57.1,891.5 57,915.7 V 940 H 28.6 0.1 l 8.8,18.2 8.7,18.3 19.7,0.3 19.6,0.2 0.3,91.3 c 0.3,90 0.4,91.3 2.5,98.9 2.4,8.4 5.2,14.5 9.1,19.6 4.4,5.7 22.4,19.2 25.7,19.2 0.3,0 0.5,-51.5 0.5,-114.5 V 977 h 18.5 18.5 v 60.7 l 0.1,60.8 17.8,15.9 c 9.8,8.8 18.2,16.1 18.7,16.3 0.5,0.2 0.9,-7.4 0.9,-17.9 0,-10.1 0.1,-53 0.3,-95.3 l 0.3,-77 7.6,18.2 7.7,18.3 h 6.8 6.8 v 62.3 62.4 l 10.1,15.6 10.1,15.7 h 88.4 88.4 l 0.2,73.5 0.3,73.5 6.4,-3.7 c 9.1,-5.4 20,-15.9 23.4,-22.5 1.5,-3.1 3.7,-9.1 5,-13.4 l 2.2,-7.9 -0.3,-143 c -0.1,-78.7 -0.5,-147.3 -0.8,-152.5 -2.1,-36.6 -7.8,-66 -19.3,-101 -8.2,-24.6 -13.8,-38.5 -25.3,-62 -9.3,-19.1 -10.1,-20.3 -11.4,-18.5 -2.9,3.9 -14.2,25.1 -18.9,35.5 -2.6,5.8 -4.8,10.6 -4.9,10.7 -0.1,0.2 -2.2,-4.8 -4.5,-11 -5.6,-14.5 -10.8,-24.5 -13.2,-25.2 -4.5,-1.5 -8.2,-13.4 -10.9,-34.5 -1.1,-8.5 -2.3,-16.8 -2.6,-18.4 l -0.6,-2.9 2.8,2 c 5.2,3.7 13.1,12.8 15.8,18.2 3.4,6.7 4.8,14.1 3.7,19.2 -0.5,2.2 -0.6,3.9 -0.2,3.7 10.3,-4.3 31.5,-14.6 31.8,-15.6 1.6,-4 -21.7,-38.1 -29.7,-43.6 -7.5,-5.2 -14.5,-12.3 -17,-17.3 -1.9,-3.7 -2.6,-6.7 -2.8,-13.6 -0.6,-13.1 -0.6,-13.2 7.2,-13.2 5.8,0 6.8,-0.3 9.6,-3 3.6,-3.4 5.8,-7.2 7.5,-12.9 1.2,-3.9 1.4,-4 10.1,-6.8 17.3,-5.5 31.4,-8.8 37.9,-8.8 5.6,0 6.6,0.3 7.9,2.3 2.3,3.4 3.5,14.3 4.3,38.3 l 0.6,21.6 3.3,1.4 c 4.3,1.8 19.4,4.4 25.6,4.4 5.2,0 10.1,-2.1 25.2,-10.8 4.4,-2.5 10.6,-5.5 13.9,-6.7 4.3,-1.6 7.5,-3.8 12.2,-8.3 l 6.3,-6.2 8.8,0.2 c 4.9,0.1 15.7,-0.4 23.9,-1.1 12.3,-1 17.7,-1 30,0.1 l 15,1.3 -18.3,12.3 -18.3,12.3 -12.3,-5 c -7.3,-2.9 -13.2,-4.8 -14.4,-4.4 -1.5,0.3 -3.2,-0.6 -5.9,-3.2 -3.5,-3.4 -3.8,-3.5 -5.1,-1.8 -5.4,7.1 -16.2,33.8 -17.8,44 -0.5,3.6 -0.4,4.3 1,4.3 3.2,0 1.4,1.6 -9.8,9 -6.2,4.1 -11.7,8.3 -12.2,9.4 -0.6,1.3 -2.4,2.3 -4.9,2.8 -2.2,0.5 -4.3,1.5 -4.8,2.3 -0.4,0.8 -1.9,1.5 -3.3,1.5 -1.4,0 -6,2 -10.4,4.5 -7.5,4.2 -8.4,4.5 -15.5,4.5 h -7.6 l -1.5,3.5 c -2.6,6.3 -1.3,30.8 1.9,34.8 1,1.2 2.6,1.3 9.1,0.5 7.8,-0.9 7.9,-0.9 16.2,2.8 l 8.3,3.7 13.3,-0.7 c 7.3,-0.4 20.5,-1.1 29.3,-1.6 8.8,-0.5 25.2,-1.4 36.5,-2 84.3,-4.3 94.1,-5 96.7,-6.7 2.1,-1.4 2.5,-1.4 4.2,0.1 0.9,0.9 3.4,1.6 5.4,1.6 h 3.7 v -4.6 c 0,-4.5 0.1,-4.6 2.6,-4.1 1.5,0.2 6,0.1 10,-0.4 7,-0.9 7.6,-0.8 14.5,2.3 l 7.2,3.2 2,-2.5 c 5.3,-6.5 12.1,-25.8 10.5,-30 -0.3,-0.8 -3.6,-2.5 -7.3,-3.9 -5.6,-2.1 -7.6,-3.5 -12.1,-8.6 l -5.3,-6.1 -35.6,-14.4 C 605,706 589,699.3 589,699 c 0.1,-0.3 3.7,-2.9 8,-5.9 6.7,-4.5 8.6,-6.4 11.5,-11.7 2.8,-4.9 4.7,-7 9.1,-9.8 l 5.7,-3.5 6.1,4.1 c 12.3,8.4 31.2,14.6 47.1,15.5 16,0.9 16.6,-0.1 19,-30 0.8,-10.4 2.1,-20.1 2.8,-22 0.8,-1.8 5,-6.8 9.3,-11 6,-5.9 8.6,-7.7 10.7,-7.7 3.2,0 9,2.7 16.7,8 4.8,3.3 6.6,3.9 15,4.9 14.2,1.8 13.6,1.5 14.9,6.5 0.6,2.5 1.1,6 1.1,7.9 0,4.7 -3.3,17.3 -6.6,24.9 -2.7,6.2 -3,6.5 -7.8,7.9 -4.5,1.3 -5.2,1.9 -8.3,7.4 -4.6,8.2 -7.2,17.2 -8,27.2 -0.6,8.2 -0.7,8.5 -3.5,9.5 -1.5,0.5 -2.8,1.6 -2.8,2.3 0,1.1 3.8,16.4 7.1,28.2 0.8,3 2.1,4.8 4.8,6.6 7.3,4.8 21.7,8.1 23.9,5.5 1.4,-1.8 4.2,-12.3 4.2,-16.1 0,-1.8 1.4,-4.5 3.9,-7.5 7.6,-9.1 10.4,-15.5 19.6,-44.1 2.6,-8 5.5,-16.2 6.6,-18.3 l 1.9,-3.8 5.3,3.7 c 7.8,5.6 22.7,21 26.6,27.5 7.9,13.5 10.6,24.3 9.8,38.8 -0.7,12.4 -2.5,18 -7.1,22 -10.7,9.4 -22.4,37.8 -20.2,49.2 1.8,9.9 20.4,14.3 51.7,12.3 l 11.7,-0.7 5.1,-10.8 c 5.6,-11.8 9.1,-23.7 9.1,-30.9 0,-4.9 -2.7,-11.8 -5.7,-14.8 -1.5,-1.5 -1.8,-3.5 -1.9,-12.3 0,-12.3 -1.9,-20.4 -6.9,-30.5 -4.7,-9.6 -10.9,-17.4 -27.5,-35 -22.8,-24 -36.7,-46.9 -42.5,-69.8 -2.4,-9.7 -4.5,-25 -4.5,-33.5 0,-4.7 0.1,-5 4.9,-8 2.7,-1.8 6,-4.6 7.3,-6.4 6.5,-8.5 10.8,-21.5 10.7,-31.8 l -0.1,-5.5 -1.4,6.4 c -1.7,7.8 -5.6,18.9 -6.2,17.3 -0.2,-0.6 0.6,-5.6 1.7,-11.1 2.6,-12.2 2.6,-12.8 0.2,-17.4 -2.1,-4.1 -1.4,-4.8 1.4,-1.7 1,1.1 2,1.8 2.2,1.6 0.7,-0.7 -1.7,-4.8 -4.4,-7.7 l -2.4,-2.6 4.6,-13 4.6,-13 12.1,-6.4 c 28.9,-15.2 36.8,-24.8 35.5,-43.3 -0.4,-6.6 -2.1,-12.6 -9,-33.1 -12.1,-35.7 -20.6,-53.7 -39.9,-84.7 -12.9,-20.7 -12.4,-18.1 -12,-53.8 0.3,-32.2 -0.8,-49.8 -4.8,-74.7 -8.1,-50.5 -24.7,-88 -51.7,-117.4 C 722.9,45.5 676.9,18.8 626.5,7 607.4,2.5 592.6,0.9 567,0.5 553.5,0.3 540.9,0.4 539,0.6 Z M 761,321 c 0,0.5 -0.2,1 -0.4,1 -0.3,0 -0.8,-0.5 -1.1,-1 -0.3,-0.6 -0.1,-1 0.4,-1 0.6,0 1.1,0.4 1.1,1 z m -409.5,9.8 c -0.3,0.3 -1.1,0 -1.8,-0.7 -0.9,-1 -0.8,-1.1 0.6,-0.5 1,0.3 1.5,0.9 1.2,1.2 z m 393,-0.8 c 1.3,0.6 1.5,0.9 0.5,0.9 -0.8,0 -2.2,-0.4 -3,-0.9 -1.8,-1.2 -0.2,-1.2 2.5,0 z m 19,8.8 c 1.1,0.6 1.5,1.2 0.8,1.2 -0.7,0 -2.2,-1 -3.5,-2.3 -1.3,-1.2 -1.7,-1.7 -0.8,-1.1 0.8,0.6 2.4,1.6 3.5,2.2 z m 5.2,1.8 c -0.3,0.3 -1.2,0.4 -1.9,0.1 -0.8,-0.3 -0.5,-0.6 0.6,-0.6 1.1,-0.1 1.7,0.2 1.3,0.5 z M 325,348.3 c 0,0.2 -1.5,1.6 -3.2,3.3 l -3.3,2.9 2.9,-3.3 c 2.8,-3 3.6,-3.7 3.6,-2.9 z m 459.7,2.7 c 1.4,1.1 2.2,2 1.8,2 -0.4,0 -1.8,-0.9 -3.2,-2 -1.4,-1.1 -2.2,-2 -1.8,-2 0.4,0 1.8,0.9 3.2,2 z m 6,2.6 c -0.3,0.3 -1.2,0.4 -1.9,0.1 -0.8,-0.3 -0.5,-0.6 0.6,-0.6 1.1,-0.1 1.7,0.2 1.3,0.5 z m 9,9.6 c -0.3,0.8 -0.6,0.5 -0.6,-0.6 -0.1,-1.1 0.2,-1.7 0.5,-1.3 0.3,0.3 0.4,1.2 0.1,1.9 z m 8.4,12.2 c 1.3,0.9 1.9,1.6 1.3,1.6 -1.8,0 -9.4,-9.2 -9.4,-11.4 0,-0.6 1.3,1.1 2.9,3.6 1.6,2.5 3.9,5.3 5.2,6.2 z m 9.3,-1.8 c 0.9,2.4 0.2,2.6 -1.2,0.4 -0.7,-1.1 -0.8,-2 -0.3,-2 0.5,0 1.2,0.7 1.5,1.6 z m 1.3,5.6 c -0.3,0.8 -0.6,0.5 -0.6,-0.6 -0.1,-1.1 0.2,-1.7 0.5,-1.3 0.3,0.3 0.4,1.2 0.1,1.9 z m 3.9,10.5 c -0.4,0.4 -3.6,-7.3 -3.5,-8.5 0,-0.4 0.9,1.3 2,3.7 1.1,2.4 1.8,4.6 1.5,4.8 z M 287,382.3 c 0,0.2 -1.2,1.4 -2.7,2.8 l -2.8,2.4 2.4,-2.8 c 2.3,-2.5 3.1,-3.2 3.1,-2.4 z m 539.9,16.2 c 0,0.5 -0.8,-0.6 -1.9,-2.5 -1.1,-1.9 -1.9,-4 -1.9,-4.5 0,-0.6 0.8,0.6 1.9,2.5 1.1,1.9 1.9,3.9 1.9,4.5 z m 2.1,5 c 0,0.5 -0.5,0.3 -1,-0.5 -0.5,-0.8 -1,-2 -1,-2.5 0,-0.6 0.5,-0.3 1,0.5 0.5,0.8 1,1.9 1,2.5 z m 2.4,6.5 c 0.5,1.7 0.4,2 -0.2,1 -0.5,-0.8 -1.3,-2.6 -1.6,-4 -0.5,-1.7 -0.4,-2 0.2,-1 0.5,0.8 1.3,2.6 1.6,4 z m 10.1,10 c 0.3,0.6 -0.1,0.7 -0.9,0.4 -1.8,-0.7 -2.1,-1.4 -0.7,-1.4 0.6,0 1.3,0.4 1.6,1 z m 9.9,10.9 c 0.4,0.5 -0.3,0.7 -1.4,0.4 -2.3,-0.6 -2.6,-1.3 -0.6,-1.3 0.8,0 1.7,0.4 2,0.9 z m -524,55.8 c 0.2,1 0.8,4.3 1.1,7.3 l 0.7,5.5 -2.1,-1.9 c -2.3,-2.1 -3.6,-7.3 -2.6,-10.5 0.8,-2.6 2.2,-2.7 2.9,-0.4 z m -0.8,30 c 0.9,5.8 4.1,18.3 5.8,23.1 1.3,3.5 1.3,5.3 0.4,9.5 l -1.1,5.2 -3.8,-19 c -2.1,-10.5 -3.8,-19.8 -3.9,-20.8 0,-3.2 1.9,-1.7 2.6,2 z m 9.4,9.6 c -0.7,3.8 -0.8,3.6 -0.8,-2.8 0,-5.4 0.2,-6.3 0.8,-4.2 0.5,1.6 0.5,4.7 0,7 z m -40.5,75.9 c -0.8,5 -4.2,17.9 -4.9,18.6 -0.3,0.2 -0.8,-0.8 -1.2,-2.4 -0.7,-2.6 0.4,-6.9 4.6,-17.8 1.5,-4 2.3,-3.1 1.5,1.6 z m 38.9,28.4 c 0.9,0.3 1.6,1 1.6,1.4 0,1.4 -3,4 -4.6,4 -1.7,0 -1.9,-3.1 -0.2,-4.8 1.4,-1.4 1.2,-1.4 3.2,-0.6 z m 434.1,77.6 c -2.1,4.4 -4.1,9.4 -4.4,11.1 -0.5,2.5 -1.3,3.3 -3.9,3.8 -6.9,1.4 -8.4,4.4 -9.3,18.5 -0.4,7.1 -1.3,12.2 -2.3,14.2 l -1.7,3.3 -4.9,-4.2 c -2.8,-2.3 -5,-4.5 -5,-4.8 0,-0.3 0.5,-2.4 1,-4.6 0.9,-4.1 0.6,-5.1 -4.4,-12.8 l -1.7,-2.6 8.8,-5.9 c 4.8,-3.3 13.8,-10.5 19.8,-16 6.1,-5.6 11.2,-9.6 11.4,-9 0.2,0.5 -1.4,4.6 -3.4,9 z m 77.5,-5.4 c 1.4,1 3.4,3.5 4.5,5.5 2.3,4.3 3.5,4.7 3.5,1.3 0,-1.4 0.4,-2.7 0.9,-3.1 1.6,-0.9 13.8,11.2 17.5,17.4 4.1,6.7 8.3,18.7 9.2,26.3 l 0.6,5.6 -3.8,0.5 c -2.2,0.3 -5.1,0.8 -6.5,1.2 -2.5,0.7 -4.7,-0.9 -8.2,-5.9 -1.3,-1.7 -1.5,-1.7 -4.5,-0.2 -5.5,2.9 -5.9,2.5 -6.5,-7.7 -0.7,-10.8 -2.4,-16.1 -10.1,-31.4 -3.1,-6.2 -5.6,-11.6 -5.6,-11.9 0,-1.2 6.4,0.6 9,2.4 z m -548.2,78.9 c 22.8,13 50.2,29.7 50.2,30.6 0,0.6 -1.6,5.7 -3.7,11.4 l -3.6,10.4 -4.1,-0.7 c -15.2,-2.5 -29,-13.7 -25.8,-20.9 1.3,-2.8 0.7,-3 -3.4,-1.5 -1.5,0.6 -3.1,0.7 -3.6,0.2 -0.8,-0.8 -11.8,-30 -11.8,-31.5 0,-1.1 0.9,-0.9 5.8,2 z m 563.7,2.7 c 9.4,1.4 17.1,2.6 17.1,2.6 1.2,0 -7.4,26.7 -8.8,27.6 -0.6,0.4 -9.5,-0.2 -19.9,-1.2 L 831,811.6 v -3.3 c 0,-1.9 1.5,-7.5 3.4,-12.6 1.9,-5.1 3.8,-10.5 4.2,-12 0.6,-2.5 1.1,-2.8 3.3,-2.4 1.4,0.3 10.3,1.7 19.6,3.1 z M 383.6,867 c 5.2,18.9 11.4,56.3 11.4,69.2 v 4.8 h -17.7 -17.6 l 0.6,-11.3 c 1.2,-21.8 6.8,-51.2 13.4,-71.1 l 3.6,-10.9 1.4,3.4 c 0.8,1.9 3,9 4.9,15.9 z m 12.4,84 v 3 H 377.5 359 v -3 -3 h 18.5 18.5 z" />
  <path
     inkscape:connector-curvature="0"
     style="fill:#040000;fill-opacity:0.97512436;stroke:none;stroke-width:0.1"
     id="path14"
     d="m 764.5,768.9 c -7.5,4.4 -16.6,12.5 -20.6,18.5 -4.2,6.3 -7.6,16.3 -8.9,26.6 -0.5,4.1 -1,34.2 -1,66.7 V 940 h -31.5 c -17.3,0 -31.5,0.3 -31.5,0.7 0,0.5 5.1,8.7 11.3,18.3 l 11.3,17.5 20.2,0.3 20.2,0.2 0.2,78.1 0.3,78 18.8,-16.6 18.7,-16.6 V 1038.5 977 h 18.5 18.4 l 0.3,81.7 0.3,81.8 2.8,8 c 1.5,4.4 4.4,10.4 6.3,13.3 3.7,5.6 14.1,14.7 22.3,19.4 l 5.1,3 V 1022.4 860.6 l -5.2,4.9 c -2.9,2.7 -11.3,10.8 -18.5,18 l -13.3,13 V 918.2 940 H 790.5 772 v -87 c 0,-68.9 -0.3,-87 -1.2,-87 -0.7,0 -3.5,1.3 -6.3,2.9 z" />
  <path
     inkscape:connector-curvature="0"
     style="fill:#040000;fill-opacity:1;stroke:none;stroke-width:0.1"
     id="path16"
     d="m 1034,804.7 c -18,3 -41.3,18.1 -37.5,24.3 0.4,0.7 3.1,2.7 6.1,4.6 9.5,6.1 11.5,12.4 7.1,22.2 -4.3,9.4 -4.4,12.7 -0.8,23 1.7,5 3.1,9.8 3.1,10.7 0,1 -1.4,4.2 -3.1,7.1 -3.3,5.9 -3.3,7.5 0.7,13.4 3.1,4.4 3,6.5 -0.3,14.5 -2.6,6.3 -2.6,6.6 -1,10 l 1.7,3.5 -7.8,0.1 c -4.2,0 -9.9,0.4 -12.7,0.7 -5,0.7 -5,0.7 -5.3,4.6 -0.2,2.4 0.2,4.2 1,4.7 0.7,0.5 6.3,0.9 12.5,0.9 h 11.1 l 0.4,5.2 c 0.6,7.7 -0.7,11.8 -4.3,13.1 l -2.9,1.1 0.1,23.6 c 0.2,70.8 1.8,139.8 3.2,148 5.6,30.8 13.1,51.9 24.8,69.1 4.6,6.8 17.5,20.6 18.4,19.7 0.3,-0.3 0.1,-3.6 -0.4,-7.4 -5.9,-41.4 -5.9,-97.3 -0.1,-121.9 1.1,-4.4 1.4,-52.4 0.4,-57.4 -0.5,-2.5 -1.2,-3.2 -4,-3.7 -2.7,-0.5 -3.4,-1.1 -3.4,-3 0,-1.9 0.7,-2.4 3.5,-3 2.8,-0.5 3.5,-1.1 3.5,-3 0,-1.9 -0.7,-2.4 -3.5,-3 -2.8,-0.5 -3.5,-1.1 -3.5,-3 0,-1.8 0.5,-2.4 2.3,-2.4 3.3,0 4.9,-1.5 4.5,-4.1 -0.2,-1.8 -1.1,-2.5 -3.3,-2.9 -3.6,-0.6 -5.1,-5 -1.7,-5 3.6,0 5.2,-1.2 5.2,-3.6 0,-1.7 -0.6,-2.4 -1.9,-2.4 -3.2,0 -5.1,-1.1 -5.1,-3 0,-1.9 1.9,-3 5.1,-3 1.8,0 1.9,-1 1.9,-24.6 v -24.6 l 12.6,0.4 c 14.1,0.4 12.1,-0.4 20.1,9.1 1.7,2 3.2,2.7 5.8,2.7 6.8,0 8.5,-8.3 2.9,-14.9 -3.9,-4.7 -10,-6.3 -26.1,-6.8 l -14.3,-0.6 v -4.6 c -0.4,-36.5 -1.7,-61.2 -4.6,-83.9 -1.7,-13.5 -1.8,-22.8 -0.3,-27 0.6,-1.7 3,-4.7 5.5,-6.7 5.7,-4.7 6,-7.9 0.9,-10.1 -3.2,-1.3 -10.8,-1.7 -16.5,-0.7 z" />
  <path
     inkscape:connector-curvature="0"
     style="fill:#040000;fill-opacity:0.97512436;stroke:none;stroke-width:0.1"
     id="path18"
     d="m 654.5,821 c -26.6,7 -49,27.7 -55,50.9 -1.4,5.4 -1.6,10.6 -1.3,32 0.4,24.9 0.5,25.8 3.2,34.1 5.8,17.3 8.8,22.3 37.8,61.7 22.6,30.6 29.8,57.2 29.8,109.2 0,21.3 -0.9,26.8 -5.4,34.5 -3.6,6.2 -8.6,9 -15.9,9.1 -5.5,0 -6.1,-0.2 -9.2,-3.7 -5.1,-5.5 -6,-10 -5.5,-27.3 0.2,-8.3 0.4,-27.2 0.4,-42 0,-29.5 -0.9,-38.5 -5,-47.4 -3.2,-7.1 -15.7,-19.4 -24.1,-23.9 l -6.3,-3.3 v 37.9 c 0,36.6 0.1,38 2,39.7 1.1,1 2,2.9 2,4.2 0,1.6 -0.7,2.7 -2,3 -2.7,0.7 -2.7,4.9 0.1,5.8 2.8,0.9 2.2,4.9 -0.8,5.3 -1.7,0.2 -2.3,1 -2.3,2.7 0,1.7 0.6,2.5 2.3,2.7 3.4,0.5 3.5,4.4 0.2,5.2 -3.2,0.8 -3,3.9 0.3,4.4 2.9,0.4 3,4.2 0.1,6.8 -1.9,1.7 -2,2.6 -1.5,8.2 0.9,9 4.9,18.8 10.9,26.8 4.5,5.9 6.3,7.5 13.1,10.9 7.7,3.9 8,4 18.5,4 9.6,0 11.3,-0.3 17.7,-3.1 9.2,-4 24.3,-13 31.9,-19.1 7,-5.7 11.4,-13.1 14.7,-25 2.1,-7.2 2.2,-9.9 2.2,-37.3 0,-33 -1,-40.6 -7.3,-56.5 -7,-17.5 -37.5,-68.9 -54.3,-91.7 -2.7,-3.6 -6.1,-9.5 -7.6,-13 -2.7,-6.3 -2.7,-6.5 -2.6,-29.3 0,-18.8 0.3,-24.2 1.8,-29.5 4.2,-15.3 12.8,-26 21,-26 1.4,0 4,1.3 5.8,2.9 l 3.3,2.9 0.6,17.9 c 0.8,20 2,25.8 7.7,36.7 4.1,8.1 17.9,22.6 25,26.4 l 4.2,2.3 v -21.9 c 0,-20.6 -0.1,-22 -2,-23.7 -2.6,-2.4 -2.7,-6.5 -0.1,-6.5 1.2,0 2,-0.9 2.4,-2.6 0.3,-2 -0.1,-2.7 -1.9,-3.4 -3.1,-1.2 -3.2,-4.7 -0.2,-5.2 1.6,-0.2 2.3,-1 2.3,-2.8 0,-1.8 -0.7,-2.6 -2.3,-2.8 -2.9,-0.4 -3.2,-5.2 -0.4,-5.2 1,0 2.2,-0.3 2.5,-0.6 1,-1 -1.2,-4.4 -2.8,-4.4 -2.2,0 -1.8,-4 0.6,-6.6 1.8,-2 1.9,-2.6 0.9,-6.5 -2.7,-9.9 -7.5,-15.1 -16.8,-17.9 -8.4,-2.6 -22.9,-2.6 -32.7,0 z" />
  <path
     inkscape:connector-curvature="0"
     style="fill:#040000;fill-opacity:0.97512436;stroke:none;stroke-width:0.1"
     id="path20"
     d="M 460.8,952.5 461,1083 h 18.5 18.5 l 0.2,-98.5 0.3,-98.4 12,7.8 c 11.9,7.7 19.8,14.9 22.9,20.9 1.4,2.8 1.6,11.8 1.6,86.4 0,77.3 -0.1,83.5 -1.8,86.8 -3.5,7 -4.1,7.1 -43.6,7.7 l -35.3,0.6 -6.4,17.5 c -3.5,9.6 -6.6,17.9 -6.8,18.4 -0.2,0.6 17.4,0.9 48.5,0.6 l 48.9,-0.3 5.9,-3 c 7.6,-3.8 17.2,-13.3 21.3,-21 7,-13.3 6.6,-8.6 7,-104.5 0.4,-96.8 0.5,-95.7 -6.5,-110 -4.4,-9 -15.3,-20.4 -25.7,-26.8 -8,-5 -78.7,-45.2 -79.5,-45.2 -0.3,0 -0.4,58.7 -0.2,130.5 z" />
  <path
     inkscape:connector-curvature="0"
     style="fill:#040000;fill-opacity:1;stroke:none;stroke-width:0.1"
     id="path22"
     d="m 911.5,823.4 c -13.4,2.7 -23.5,7.7 -31.4,15.6 -5.6,5.6 -8.7,11.4 -10.1,19.2 -0.7,3.6 -1,39.6 -0.8,103.9 l 0.3,98.4 2.7,5.8 c 7.7,16.5 29.1,27.6 53.1,27.7 23,0 44.1,-10.6 52.5,-26.5 l 2.7,-5 0.3,-102.7 0.2,-102.6 -2.1,-5.9 c -4.3,-11.4 -18.6,-22.5 -34.4,-26.7 -8.5,-2.3 -24.5,-2.9 -33,-1.2 z m 19.9,41.6 c 3.5,4.3 6.3,13.9 7.6,26.7 0.6,5.9 1.6,12.5 2.2,14.5 0.6,2 0.8,5.6 0.5,8 -0.5,3.4 0.1,6 2.7,12.8 l 3.4,8.5 0.5,48.6 c 0.4,34.2 0.2,49 -0.6,49.8 -0.8,0.8 -0.8,1.7 0,3.3 3.2,6.7 2.1,9.3 -5.9,13.2 -7.2,3.5 -16.5,4.3 -24.8,2.2 -11.1,-2.9 -16.2,-8.6 -12.5,-14.2 1.3,-2 1.5,-3.2 0.7,-4.8 -0.6,-1.5 -0.6,-18.7 0,-51.2 l 1,-48.9 2.6,-6 c 1.7,-4.1 2.7,-8.4 2.9,-13.5 0.3,-4.1 0.9,-7.9 1.4,-8.4 0.5,-0.6 0.9,-4.5 0.9,-8.7 0,-12.9 3.7,-28.7 7.7,-33.1 2.5,-2.8 6.7,-2.3 9.7,1.2 z" />
  <flowRoot
     xml:space="preserve"
     id="flowRoot872"
     style="fill:black;fill-opacity:1;stroke:none;font-family:sans-serif;font-style:normal;font-weight:normal;font-size:40px;line-height:1.25;letter-spacing:0px;word-spacing:0px"><flowRegion
       id="flowRegion874"><rect
         id="rect876"
         width="284.10379"
         height="192.12775"
         x="615.21759"
         y="96.063873" /></flowRegion><flowPara
       id="flowPara878"></flowPara></flowRoot>  <text
     xml:space="preserve"
     style="font-style:normal;font-variant:normal;font-weight:normal;font-stretch:normal;font-size:216.37669373px;line-height:1.25;font-family:'URW Chancery L';-inkscape-font-specification:'URW Chancery L';letter-spacing:0px;word-spacing:0px;fill:#ffffff;fill-opacity:1;stroke:none;stroke-width:5.40941763;"
     x="501.2818"
     y="233.56554"
     id="text882"
     transform="scale(0.87044194,1.1488417)"><tspan
       sodipodi:role="line"
       id="tspan880"
       x="501.2818"
       y="233.56554"
       style="font-style:normal;font-variant:normal;font-weight:normal;font-stretch:normal;font-family:'URW Chancery L';-inkscape-font-specification:'URW Chancery L';fill:#ffffff;fill-opacity:1;stroke-width:5.40941763;">1st</tspan></text>
</svg>
