<svg xmlns="http://www.w3.org/2000/svg" width="2188.45" height="2351.131" viewBox="0 0 579.027 622.07"><defs><filter y="-.25" height="1.5" id="a" color-interpolation-filters="sRGB"><feGaussianBlur stdDeviation="5" result="result6"/><feComposite result="result8" in="SourceGraphic" operator="atop" in2="result6"/><feComposite result="result9" in2="SourceAlpha" in="result8"/><feColorMatrix values="1 0 0 0 0 0 1 0 0 0 0 0 1 0 0 0 0 0 1 0" result="result10"/><feBlend in="result10" in2="result6"/></filter></defs><g transform="translate(-8.575 403.366)" filter="url(#a)"><path d="M340.21 110.522h-81.39V32.4c0-11.95 11.854-21.637 26.478-21.637h28.432c14.625 0 26.479 9.686 26.479 21.637zm0 0" fill="#fff"/><path d="M437.613-181.464c0-63.95-43.056-105.825-101.737-118.224v42.035c-12.354-3.543-25.343-5.2-37.788-5.2-12.444 0-25.434 1.657-37.788 5.2v-42.035c-58.68 12.4-101.736 54.275-101.736 118.224 0 31.27 10.287 62.995 27.637 89.655-5.155 18.53-13.104 51.459-13.104 78.937 0 51.254 51.982 68.718 70.262 109.912 4.77 10.81 15.215 17.985 27.047 17.985h55.365c11.831 0 22.277-7.176 27.046-17.985 18.281-41.194 70.262-58.658 70.262-109.912 0-27.478-7.948-60.406-13.103-78.937 17.35-26.66 27.637-58.385 27.637-89.655zm0 0" fill="none" stroke="#fffffb" stroke-width="17.441" stroke-linecap="round" stroke-linejoin="round" stroke-miterlimit="10"/><path d="M167.284-130.664s-34.881 68.377-34.881 245.69m25.502-307.845c-14.239 25.32-66.197 124.968-66.197 272.963m98.83-342.998S85.895-216.346 56.827-12.872m372.066-117.792s34.88 68.377 34.88 245.69" fill="none" stroke="#fff" stroke-width="17.441" stroke-linecap="round" stroke-linejoin="round" stroke-miterlimit="10"/><path d="M438.272-192.819c14.238 25.32 66.197 124.968 66.197 272.963" fill="none" stroke="#fcffff" stroke-width="17.441" stroke-linecap="round" stroke-linejoin="round" stroke-miterlimit="10"/><path d="M405.639-262.854s104.643 46.508 133.71 249.982" fill="none" stroke="#fff" stroke-width="17.441" stroke-linecap="round" stroke-linejoin="round" stroke-miterlimit="10"/><path d="M211.082-89.219l2.71 2.601 2.946 2.76 4.95 4.334 5.538 4.257 5.303 3.783 5.597 3.468 6.304 3.39 5.303 2.68 6.481 2.68 6.069 2.128 5.715 1.734 5.303 1.34 4.83 1.024 3.94.617-.817 3.098-1.022 2.734-1.191 2.688-1.703 3.006-2.316 3.007-2.452 2.597-1.26.865-1.566 1.185-2.418 1.321-2.588.957-2.588.729-1.567.364-2.996.365-4.325.045-3.848-.364-3.61-.775-2.588-.82-5.287-2.051-4.045-2.706-6.646-6.056-2.003-2.626-2.247-3.417-2.111-3.326-2.316-4.783-2.077-5.239-.886-2.733-.851-2.688-.954-3.417-.885-4.1-.783-4.191-.58-4.374zM313.92-52.544l3.321-.408 3.577-.495 5.863-1.057 6.27-1.633 5.859-1.784 5.928-2.28 6.425-2.96 5.32-2.618 6.21-3.65 5.629-3.706 5.169-3.695 4.664-3.63 4.154-3.458 5.558-5.199-.088 4.727-.182 3.872-.13 2.711.184 3.764-.28 4.301-.582 4.11-.529 1.758-.604 2.267-1.181 3.117-1.489 2.99-1.6 2.817-1.005 1.647-2.087 2.9-3.247 3.822-3.087 3.095-3.108 2.576-2.358 1.647-5 3.079-4.314 2.135-5.672 1.516-4.365.772-4.12-.16-3.36-.209-4.16-.494-3.112-1.321-2.21-1.109-2.436-1.468-3.687-3.48-2.676-3.599L319.42-45l-2.17-3.345z" fill="#fff"/><path d="M298.292-77.102c-49.915 0-90.11-57.999-90.11-106.006 0-54.774 48.552-74.213 90.11-74.213s90.11 19.439 90.11 74.213c0 48.007-40.196 106.006-90.11 106.006zm0 0" fill="#fbffff"/></g></svg>