<?xml version="1.0" ?><!DOCTYPE svg  PUBLIC '-//W3C//DTD SVG 1.1//EN'  'http://www.w3.org/Graphics/SVG/1.1/DTD/svg11.dtd'><svg height="512px" style="enable-background:new 0 0 512 512;" version="1.1" viewBox="0 0 512 512" width="512px" xml:space="preserve" xmlns="http://www.w3.org/2000/svg" xmlns:xlink="http://www.w3.org/1999/xlink"><g id="_x32_17_x2C__goals_x2C__report_x2C__analytics_x2C__target_x2C__achievement"><g><path d="M364.441,195.705c14.558,0,28.273,3.646,40.271,10.039l15.973-23.1    c-9.034-5.143-18.885-9.115-29.277-11.646l0,0h-0.056l-0.108-0.027h-0.053l-0.057-0.026h-0.027l-0.025-0.027h-0.027h-0.057l0,0    l-0.024-0.027h-0.028l-2.203-0.489l0,0c-0.928-0.218-1.85-0.408-2.776-0.571h-0.028l-0.189-0.055l-1.035-0.19l-0.134-0.027h-0.056    l-0.814-0.137l-0.193-0.054l-0.217-0.027l-0.134-0.026h-0.056l-0.219-0.027l-0.189-0.055l-0.217-0.027l-1.854-0.272l-0.217-0.027    h-0.053l-0.137-0.027l-0.219-0.026l-0.189-0.027l-0.217-0.027l-0.081-0.027h-0.108h-0.028l-0.081-0.027h-0.108l-0.108-0.027    h-0.109l0,0h-0.057l-0.08-0.027h-0.057h-0.053l-0.108-0.027h-0.056h-0.053l-0.165-0.027h-0.081l-0.108-0.027h-0.108l-0.109-0.026    l0,0l-0.137-0.027h-0.081h-0.028l-0.108-0.027h-0.053h-0.028h-0.027h-0.137l-0.025-0.026h-0.084h-0.109l-0.108-0.027h-0.108    l-0.134-0.027l-0.326-0.027l-0.137-0.027h-0.028h-0.08h-0.109l0,0l-0.137-0.027h-0.081h-0.028l-0.108-0.027h-0.081h-0.027    l-0.109-0.027h-0.056h-0.081h-0.109h-0.027l-0.081-0.027h-0.137l0,0l-0.108-0.027h-0.081h-0.028h-0.161l-0.028-0.026h-0.053    h-0.108h-0.108l-0.137-0.027l-0.219-0.027h-0.108h-0.137l-0.108-0.027h-0.057h-0.053h-0.137h-0.027l-0.082-0.026h-0.08h-0.057    h-0.08l-0.109-0.027h-0.027h-0.109h-0.08l-0.218-0.027l-0.407-0.027h-0.109h-0.108l0,0l-0.137-0.027h-0.081h-0.027h-0.109h-0.057    l-0.217-0.027h-0.081h-0.108h-0.028h-0.081l-0.137-0.027h-0.189h-0.217l-0.138-0.027h-0.024h-0.057h-0.189h-0.027h-0.081h-0.108    l-0.137-0.027h-0.109h-0.109h-0.08h-0.057h-0.108h-0.053l-0.056-0.027h-0.162h-0.084l0,0h-0.108h-0.024h-0.109h-0.084h-0.024    l-0.138-0.026h-0.056h-0.053h-0.137h-0.028h-0.08h-0.137h-0.109l0,0h-0.109l0,0h-0.133h-0.057l-0.052-0.027h-0.028h-0.109h-0.027    h-0.081h-0.108h-0.028h-0.108h-0.109h-0.027h-0.109h-0.08h-0.029h-0.137h-0.053h-0.056l-0.134-0.027l0,0h-0.108h-0.108h-0.028    h-0.028h-0.108h-0.053h-0.056h-0.138h-0.024h-0.084h-0.134l0,0h-0.108h-0.109h-0.027h-0.109h-0.08h-0.057h-0.108h-0.057h-0.081    h-0.137c-31.371,0-59.777,12.733-80.347,33.304c-20.568,20.543-33.305,48.977-33.305,80.35c0,31.398,12.736,59.805,33.305,80.375    c20.569,20.57,48.976,33.304,80.347,33.304h0.137h0.081h0.057h0.108h0.057h0.08h0.109h0.027l0.109-0.027h0.108l0,0h0.134h0.084    h0.024h0.138h0.056h0.053h0.108h0.028h0.028h0.108h0.108l0,0h0.134h0.056h0.053h0.137h0.029h0.08h0.109h0.027h0.109h0.108h0.028    l0.108-0.027h0.081h0.027h0.109h0.028h0.052h0.057h0.133l0,0h0.109l0,0h0.109h0.137l0.08-0.026h0.028h0.137h0.053h0.056h0.138    h0.024h0.084h0.109h0.024h0.108l0,0l0.084-0.027h0.162h0.056h0.053h0.108h0.057h0.08l0.109-0.027h0.109h0.137h0.108h0.081h0.027    l0.189-0.027h0.057h0.024h0.138l0.217-0.027h0.189h0.137h0.081h0.028l0.108-0.027h0.298h0.057l0.109-0.027h0.027h0.081h0.137l0,0    h0.108l0.109-0.027l0.407-0.027h0.081h0.137l0,0h0.108l0.108-0.026h0.137h0.053l0.057-0.027h0.162h0.084l0.133-0.027l0,0h0.109    h0.108l0.137-0.027l0.491-0.026l0.109-0.027h0.08l0,0h0.028l0,0h0.137l0.053-0.027h0.056h0.134l0,0l0.108-0.027h0.109h0.027h0.109    l0.081-0.027h0.028h0.137h0.027l0.081-0.028h0.137l0,0l0.108-0.026h0.109l0,0l0,0l0.137-0.027h0.053h0.057h0.133l0.246-0.027    l0.108-0.027h0.108l0.137-0.026h0.109l0.109-0.028h0.027h0.109l0.08-0.026h0.028l0,0h0.108l0.081-0.028h0.053h0.108h0.057    l0.08-0.025h0.109l0.109-0.029h0.137l0,0l0.108-0.025h0.081h0.027l0.137-0.028h0.053l0.057-0.026h0.08h0.057h0.024l0.085-0.028    h0.108h0.024l0.109-0.026h0.108l0,0l0.108-0.027h0.084h0.025l0.137-0.027l0.08-0.027h0.193l0.218-0.026l0.081-0.028l0.108-0.026    l0.218-0.028l0.217-0.025l2.261-0.355h0.053l0.189-0.025l0.218-0.055l2.288-0.409h0.053l0.137-0.026    c22.721-4.381,43.016-15.537,58.718-31.236c20.568-20.57,33.301-48.977,33.301-80.375c0-31.373-12.732-59.807-33.301-80.35    c-2.45-2.477-5.036-4.816-7.7-7.047l-15.972,23.101c1.334,1.17,2.639,2.394,3.916,3.673c15.537,15.537,25.114,36.95,25.114,60.623    c0,23.671-9.577,45.111-25.086,60.621c-15.536,15.509-36.976,25.113-60.651,25.113c-23.643,0-45.082-9.604-60.592-25.113    c-15.536-15.51-25.113-36.95-25.113-60.621c0-23.673,9.577-45.086,25.086-60.596C319.359,205.309,340.799,195.705,364.441,195.705     M364.441,225.771c8.191,0,15.973,1.769,22.994,4.925l13.441-19.427c-10.91-5.659-23.292-8.87-36.436-8.87    c-21.818,0-41.573,8.843-55.885,23.154c-14.284,14.285-23.156,34.066-23.156,55.889c0,21.848,8.872,41.602,23.156,55.914    c14.312,14.285,34.066,23.127,55.885,23.127c21.851,0,41.605-8.842,55.917-23.127c14.284-14.313,23.128-34.066,23.128-55.914    c0-21.822-8.844-41.604-23.128-55.889c-0.979-1.006-2.015-1.959-3.046-2.884l-13.441,19.427    c10.037,10.068,16.27,23.972,16.27,39.346c0,15.372-6.232,29.303-16.298,39.398l-0.218,0.162    c-10.04,9.959-23.889,16.136-39.184,16.136c-15.344,0-29.275-6.231-39.341-16.298c-10.097-10.096-16.327-24.026-16.327-39.398    c0-15.374,6.23-29.277,16.299-39.346C335.138,232.002,349.07,225.771,364.441,225.771z M366.267,261.252    c-0.601-0.055-1.196-0.082-1.825-0.082c-5.496,0-10.528,2.204-14.174,5.795l-0.138,0.137c-3.671,3.673-5.959,8.761-5.959,14.34    c0,5.604,2.288,10.692,5.935,14.338c3.671,3.674,8.76,5.932,14.336,5.932c5.608,0,10.693-2.258,14.34-5.932    c3.675-3.646,5.932-8.734,5.932-14.338c0-3.157-0.705-6.15-1.986-8.816l-10.037,14.502c-1.58,2.258-3.893,3.701-6.423,4.163    c-2.53,0.436-5.226-0.054-7.481-1.605c-2.261-1.577-3.703-3.918-4.163-6.448c-0.463-2.503,0.053-5.197,1.604-7.455    L366.267,261.252z M364.441,254.477c2.096,0,4.109,0.244,6.044,0.68l13.059-18.855c-5.851-2.477-12.325-3.864-19.103-3.864    c-13.521,0-25.767,5.497-34.635,14.366c-8.872,8.844-14.34,21.115-14.34,34.639c0,13.55,5.468,25.793,14.34,34.664    c8.868,8.869,21.113,14.338,34.635,14.338c13.47,0,25.662-5.414,34.502-14.176l0.166-0.162    c8.868-8.871,14.339-21.114,14.339-34.664c0-13.061-5.116-24.951-13.47-33.74l-13.063,18.855    c2.833,4.245,4.492,9.387,4.492,14.885c0,7.428-3.021,14.176-7.893,19.045c-4.867,4.898-11.616,7.918-19.074,7.918    c-7.426,0-14.146-3.02-19.046-7.891c-4.867-4.896-7.89-11.645-7.89-19.072c0-7.429,3.022-14.177,7.89-19.047l0.218-0.219    C350.457,257.441,357.125,254.477,364.441,254.477z M296.175,71.468v-0.081V52.639H263.28c-1.85,0-3.348-1.523-3.348-3.346    c0-6.449-2.611-12.272-6.802-16.462c-4.218-4.218-10.041-6.829-16.463-6.829c-6.447,0-12.269,2.611-16.459,6.829    c-4.19,4.189-6.802,9.958-6.83,16.353v0.109c0,1.822-1.499,3.346-3.348,3.346h-32.895v18.748v0.081v14.339v0.082v14.774h119.039    C296.175,73.345,296.175,107.9,296.175,71.468z M31.892,208.793v161.813l16.217,25.848l16.189-25.82v-24.299H37.662    c-1.85,0-3.348-1.496-3.348-3.346c0-1.852,1.499-3.348,3.348-3.348h26.637V208.793H51.458v95.285c0,1.851-1.523,3.348-3.348,3.348    c-1.85,0-3.344-1.497-3.344-3.348v-95.285H31.892z M31.892,196.575v5.523H48h0.109h0.081h16.108v-5.523H31.892z M31.892,178.236    v11.646h32.407v-11.646c0-3.211-1.333-6.121-3.429-8.217c-2.095-2.123-5.033-3.429-8.216-3.429H43.54    c-3.183,0-6.096,1.306-8.219,3.429C33.226,172.115,31.892,175.025,31.892,178.236z M170.444,82.541v-7.727H95.779    c-3.046,0-5.822,1.225-7.833,3.238c-2.015,2.013-3.239,4.789-3.239,7.836v352.767c0,6.095,4.98,11.073,11.072,11.073h281.753    c2.99,0,5.686-1.197,7.672-3.102l0.165-0.163c2.011-2.015,3.264-4.762,3.264-7.809v-39.29c-1.688,0.354-3.4,0.652-5.089,0.924    l0.028,25.034c0,4.57-1.878,8.733-4.899,11.753c-3.019,3.048-7.208,4.926-11.781,4.926H106.42c-4.573,0-8.735-1.878-11.753-4.897    c-3.05-3.048-4.927-7.211-4.927-11.781V99.221c0-4.57,1.877-8.761,4.899-11.781c3.018-3.021,7.184-4.898,11.781-4.898H170.444z     M383.572,162.618c1.685,0.272,3.373,0.571,5.061,0.897V85.889c0-3.047-1.253-5.823-3.239-7.836    c-2.039-2.014-4.815-3.238-7.861-3.238h-74.665v7.727h64.024c4.597,0,8.763,1.878,11.781,4.898    c3.021,3.021,4.899,7.184,4.899,11.781V162.618z M243.336,53.238c-1.688-1.715-4.053-2.749-6.668-2.749    c-2.555,0-4.868,0.979-6.528,2.585l-0.165,0.164c-1.712,1.713-2.776,4.08-2.776,6.693c0,2.611,1.063,4.979,2.776,6.666    c1.716,1.714,4.082,2.775,6.693,2.775c2.53,0,4.843-0.98,6.531-2.612l0.137-0.163c1.713-1.688,2.776-4.055,2.776-6.666    C246.112,57.318,245.049,54.951,243.336,53.238z M236.668,43.796c4.436,0,8.465,1.796,11.402,4.735    c2.913,2.911,4.734,6.938,4.734,11.4c0,4.462-1.821,8.488-4.734,11.4l-0.189,0.19c-2.913,2.803-6.886,4.544-11.213,4.544    c-4.46,0-8.514-1.823-11.427-4.734c-2.91-2.912-4.734-6.938-4.734-11.4c0-4.463,1.825-8.489,4.734-11.428l0.217-0.164    C228.372,45.51,232.316,43.796,236.668,43.796z M160.294,155.897h-29.006v29.005h29.006v-13.441l-12.325,6.803    c-1.716,0.707-3.646-0.082-4.383-1.769l-4.569-10.774c-0.709-1.715,0.081-3.674,1.797-4.381c1.685-0.707,3.646,0.081,4.352,1.796    l3.131,7.347l11.999-6.612V155.897z M127.94,149.205h35.699c1.853,0,3.348,1.496,3.348,3.346v7.646l8.107-4.463    c1.635-0.898,3.646-0.3,4.545,1.307c0.87,1.633,0.298,3.646-1.334,4.543l-11.318,6.204v20.462c0,1.85-1.495,3.346-3.348,3.346    H127.94c-1.849,0-3.344-1.496-3.344-3.346v-35.699C124.596,150.701,126.091,149.205,127.94,149.205z M160.294,239.92h-29.006    v29.004h29.006v-13.332l-12.325,6.803c-1.716,0.707-3.646-0.082-4.383-1.77l-4.569-10.773c-0.709-1.715,0.081-3.674,1.797-4.381    c1.685-0.708,3.646,0.081,4.352,1.795l3.131,7.347L160.294,248V239.92z M127.94,233.227h35.699c1.853,0,3.348,1.496,3.348,3.346    v7.755l8.107-4.462c1.635-0.898,3.646-0.3,4.545,1.306c0.87,1.606,0.298,3.646-1.334,4.544l-11.318,6.204v20.353    c0,1.85-1.495,3.346-3.348,3.346H127.94c-1.849,0-3.344-1.496-3.344-3.346v-35.699    C124.596,234.723,126.091,233.227,127.94,233.227z M160.294,323.941h-29.006v29.004h29.006V323.941z M127.94,317.248h35.699    c1.853,0,3.348,1.496,3.348,3.347v35.698c0,1.85-1.495,3.347-3.348,3.347H127.94c-1.849,0-3.344-1.497-3.344-3.347v-35.698    C124.596,318.744,126.091,317.248,127.94,317.248z M364.441,413.977c1.854,0,3.349,1.523,3.349,3.347    c0,1.85-1.495,3.346-3.349,3.346c-38.418,0-73.246-15.563-98.441-40.759c-25.194-25.195-40.787-60.023-40.787-98.469    c0-1.824,1.527-3.348,3.348-3.348c1.85,0,3.348,1.523,3.348,3.348c0,36.596,14.855,69.736,38.825,93.734    C294.708,399.147,327.848,413.977,364.441,413.977z M444.083,130.729c-0.46-1.796,0.6-3.619,2.369-4.081    c1.797-0.49,3.618,0.57,4.109,2.367l5.523,20.434h20.679c1.85,0,3.345,1.496,3.345,3.347c0,1.823-1.495,3.319-3.345,3.319h-21.496    l-4.706,6.83h16.87c1.85,0,3.345,1.496,3.345,3.318c0,1.852-1.495,3.348-3.345,3.348h-21.496l-78.742,113.734    c-1.035,1.496-3.131,1.877-4.625,0.843c-1.527-1.034-1.906-3.129-0.846-4.625l78.851-113.897l-5.822-21.441    c-0.463-1.795,0.601-3.618,2.369-4.08c1.793-0.49,3.618,0.57,4.081,2.34l4.324,15.998l4.383-6.313L444.083,130.729z     M71.781,60.775c-1.85,0-3.345-1.498-3.345-3.348c0-1.822,1.495-3.346,3.345-3.346h70.607c1.853,0,3.348,1.523,3.348,3.346    c0,1.85-1.495,3.348-3.348,3.348H71.781z M76.733,472.203c-1.85,0-3.345-1.495-3.345-3.347c0-1.85,1.495-3.347,3.345-3.347    h194.493c1.85,0,3.345,1.497,3.345,3.347c0,1.852-1.495,3.347-3.345,3.347H76.733z M190.63,485.999    c-1.85,0-3.345-1.523-3.345-3.347c0-1.852,1.495-3.348,3.345-3.348h134.579c1.85,0,3.345,1.496,3.345,3.348    c0,1.823-1.495,3.347-3.345,3.347H190.63z M338.977,485.999c-1.824,0-3.32-1.523-3.32-3.347c0-1.852,1.496-3.348,3.32-3.348    h16.842c1.85,0,3.346,1.496,3.346,3.348c0,1.823-1.496,3.347-3.346,3.347H338.977z M54.097,485.618    c-1.85,0-3.348-1.497-3.348-3.347c0-1.823,1.499-3.348,3.348-3.348h63.778c1.821,0,3.348,1.524,3.348,3.348    c0,1.85-1.527,3.347-3.348,3.347H54.097z M364.441,161.095h0.137h0.109h0.028h0.108h0.081h0.056h0.109h0.053h0.084h0.108h0.053    h0.081h0.137l0,0h0.109h0.108h0.028h0.189v0.027h0.056h0.161h0.246h0.218h0.218h0.027h0.134h0.084h0.028h0.189l0.08,0.026h0.109    h0.028h0.218h0.027h0.109h0.108h0.024h0.193l0.218,0.027h0.218h0.217h0.162l0.08,0.027h0.222h0.218l0.217,0.027h0.242h0.218    l0.218,0.027h0.137h0.081l0.218,0.027h0.217l0.246,0.027h0.218l0.218,0.027h0.217l0.464,0.027l0.218,0.027h0.217l0.218,0.026    h0.218l0.681,0.055l0.218,0.027l0.436,0.026l0.217,0.027l1.934,0.191V99.221c0-2.748-1.115-5.251-2.94-7.047    c-1.794-1.822-4.299-2.939-7.047-2.939h-64.024v14.775c0,1.85-1.495,3.347-3.345,3.347H173.788c-1.821,0-3.344-1.497-3.344-3.347    V89.234H106.42c-2.748,0-5.25,1.117-7.047,2.939c-1.797,1.796-2.937,4.299-2.937,7.047v326.103c0,2.747,1.14,5.25,2.937,7.047    c1.797,1.795,4.299,2.938,7.047,2.938h260.472c2.748,0,5.253-1.143,7.075-2.938c1.797-1.797,2.912-4.3,2.912-7.047V401.16    l-1.934,0.191h-0.217l-0.436,0.054h-0.218l-0.681,0.055l-0.218,0.027h-0.218l-0.217,0.027l-0.218,0.027l-0.464,0.026h-0.217    l-0.218,0.027h-0.218h-0.246l-0.217,0.027h-0.218l-0.081,0.027h-0.137h-0.218l-0.218,0.027h-0.242h-0.217l-0.218,0.027h-0.222    h-0.08h-0.162l-0.217,0.027h-0.218h-0.218h-0.193h-0.024h-0.108l-0.109,0.026h-0.027h-0.218h-0.028h-0.109h-0.08h-0.189h-0.028    h-0.084h-0.134l-0.027,0.027h-0.218h-0.218h-0.246h-0.161h-0.056l0,0h-0.189h-0.028h-0.108h-0.109l0,0h-0.137h-0.081h-0.053    h-0.108h-0.084h-0.053h-0.109h-0.056h-0.081h-0.108h-0.028h-0.109h-0.137c-33.221,0-63.314-13.468-85.081-35.235    c-21.769-21.768-35.263-51.861-35.263-85.109c0-33.223,13.494-63.316,35.263-85.084    C301.127,174.563,331.221,161.095,364.441,161.095z" style="fill-rule:evenodd;clip-rule:evenodd;"/></g></g><g id="Layer_1"/></svg>