<?xml version="1.0" ?><!DOCTYPE svg  PUBLIC '-//W3C//DTD SVG 1.1//EN'  'http://www.w3.org/Graphics/SVG/1.1/DTD/svg11.dtd'><svg height="21.396px" id="Capa_1" style="enable-background:new 0 0 18.151 21.396;" version="1.1" viewBox="0 0 18.151 21.396" width="18.151px" xml:space="preserve" xmlns="http://www.w3.org/2000/svg" xmlns:xlink="http://www.w3.org/1999/xlink"><g><path d="M12.925,3.887c1.07,0,1.943-0.873,1.943-1.943   S13.995,0,12.925,0s-1.944,0.873-1.944,1.943S11.854,3.887,12.925,3.887z" style="fill-rule:evenodd;clip-rule:evenodd;fill:#000000;"/><path d="M1.943,13.245c1.07,0,1.943-0.873,1.943-1.943   S3.014,9.358,1.943,9.358S0,10.231,0,11.302S0.873,13.245,1.943,13.245z" style="fill-rule:evenodd;clip-rule:evenodd;fill:#000000;"/><path d="M16.208,14.717c1.07,0,1.943-0.873,1.943-1.943   s-0.873-1.943-1.943-1.943c-1.071,0-1.944,0.873-1.944,1.943S15.137,14.717,16.208,14.717z" style="fill-rule:evenodd;clip-rule:evenodd;fill:#000000;"/><path d="M11.227,21.396c1.07,0,1.943-0.873,1.943-1.943   s-0.873-1.943-1.943-1.943s-1.944,0.873-1.944,1.943S10.156,21.396,11.227,21.396z" style="fill-rule:evenodd;clip-rule:evenodd;fill:#000000;"/><path d="M10.132,12.302c1.299,0,2.358-1.06,2.358-2.358   s-1.059-2.358-2.358-2.358c-1.299,0-2.358,1.06-2.358,2.358S8.833,12.302,10.132,12.302z" style="fill-rule:evenodd;clip-rule:evenodd;fill:#000000;"/><line style="fill-rule:evenodd;clip-rule:evenodd;fill:none;stroke:#000000;stroke-width:0.9621;stroke-miterlimit:2.6131;" x1="12.604" x2="10.339" y1="3.358" y2="9.773"/><line style="fill-rule:evenodd;clip-rule:evenodd;fill:none;stroke:#000000;stroke-width:0.9618;stroke-miterlimit:2.6131;" x1="16.343" x2="10.255" y1="12.884" y2="9.849"/><line style="fill-rule:evenodd;clip-rule:evenodd;fill:none;stroke:#000000;stroke-width:1.0003;stroke-miterlimit:2.6131;" x1="10.834" x2="10.458" y1="18.416" y2="9.954"/><line style="fill-rule:evenodd;clip-rule:evenodd;fill:none;stroke:#000000;stroke-width:0.9621;stroke-miterlimit:2.6131;" x1="3.599" x2="10.223" y1="11.261" y2="9.71"/></g><g/><g/><g/><g/><g/><g/><g/><g/><g/><g/><g/><g/><g/><g/><g/></svg>
