<?xml version="1.0" standalone="no"?>
<!DOCTYPE svg PUBLIC "-//W3C//DTD SVG 20010904//EN"
 "http://www.w3.org/TR/2001/REC-SVG-20010904/DTD/svg10.dtd">
<svg version="1.0" xmlns="http://www.w3.org/2000/svg"
 width="1093.000000pt" height="1280.000000pt" viewBox="0 0 1093.000000 1280.000000"
 preserveAspectRatio="xMidYMid meet">
<metadata>
Created by potrace 1.15, written by Peter Selinger 2001-2017
</metadata>
<g transform="translate(0.000000,1280.000000) scale(0.100000,-0.100000)"
fill="#000000" stroke="none">
<path d="M5390 12794 c-19 -2 -84 -9 -145 -15 -145 -14 -382 -61 -524 -104
-367 -112 -670 -279 -956 -526 -403 -349 -617 -713 -739 -1259 -58 -263 -98
-650 -97 -956 l0 -200 -29 -63 c-17 -35 -65 -120 -108 -189 -217 -352 -386
-728 -448 -997 -26 -114 -25 -266 2 -325 42 -91 111 -148 283 -235 52 -26 123
-65 158 -87 54 -34 63 -44 69 -76 3 -20 28 -134 54 -252 92 -405 94 -544 11
-708 -16 -32 -37 -84 -46 -115 -15 -53 -15 -61 0 -114 20 -68 15 -110 -32
-282 -71 -258 -102 -545 -84 -762 11 -128 42 -302 67 -371 13 -37 13 -39 -11
-48 -40 -15 -58 -118 -34 -205 6 -22 40 -99 75 -171 35 -71 67 -145 70 -162 8
-38 37 -62 76 -62 34 0 34 -3 6 -40 -13 -19 -18 -34 -12 -39 5 -5 63 -32 128
-61 82 -36 137 -54 177 -57 33 -3 59 -9 59 -12 0 -4 -11 -56 -25 -116 -96
-423 -129 -810 -123 -1425 4 -375 6 -411 26 -482 33 -120 66 -181 130 -238 54
-48 179 -120 208 -120 12 0 14 93 14 555 l0 555 185 0 185 0 0 -551 c0 -375 3
-557 11 -571 6 -11 27 -27 47 -36 l37 -16 -55 -7 c-30 -4 -409 -7 -842 -8
l-788 -1 0 595 0 595 416 0 c408 0 415 0 409 20 -3 10 -39 93 -79 182 l-74
163 -336 3 -336 2 0 220 0 220 426 0 c402 0 426 1 420 18 -4 9 -37 92 -73 185
l-67 167 -540 -2 -541 -3 -3 -403 -2 -402 -145 0 -145 0 0 881 0 880 -22 -7
c-36 -11 -124 -72 -186 -128 -70 -65 -106 -120 -140 -221 l-27 -80 -3 -663 -3
-662 -184 0 -185 0 0 445 c0 245 -3 445 -7 444 -5 0 -90 -91 -190 -202 l-182
-202 -1 -242 0 -243 -284 0 -285 0 88 -182 87 -183 197 -3 196 -2 3 -913 c3
-900 4 -913 25 -989 24 -84 52 -145 91 -196 44 -57 224 -192 257 -192 3 0 5
515 5 1145 l0 1145 185 0 185 0 0 -607 1 -608 178 -159 c98 -88 182 -161 187
-163 5 -2 9 74 9 179 0 101 1 530 3 953 l3 770 76 -182 77 -183 68 0 68 0 0
-623 0 -624 101 -156 101 -157 884 0 884 0 2 -735 3 -735 64 37 c91 54 200
159 234 225 15 31 37 91 50 134 l22 79 -3 1430 c-1 787 -5 1473 -8 1525 -21
366 -78 660 -193 1010 -82 246 -138 385 -253 620 -93 191 -101 203 -114 185
-29 -39 -142 -251 -189 -355 -26 -58 -48 -106 -49 -107 -1 -2 -22 48 -45 110
-56 145 -108 245 -132 252 -45 15 -82 134 -109 345 -11 85 -23 168 -26 184
l-6 29 28 -20 c52 -37 131 -128 158 -182 34 -67 48 -141 37 -192 -5 -22 -6
-39 -2 -37 103 43 315 146 318 156 16 40 -217 381 -297 436 -75 52 -145 123
-170 173 -19 37 -26 67 -28 136 -6 131 -6 132 72 132 58 0 68 3 96 30 36 34
58 72 75 129 12 39 14 40 101 68 173 55 314 88 379 88 56 0 66 -3 79 -23 23
-34 35 -143 43 -383 l6 -216 33 -14 c43 -18 194 -44 256 -44 52 0 101 21 252
108 44 25 106 55 139 67 43 16 75 38 122 83 l63 62 88 -2 c49 -1 157 4 239 11
123 10 177 10 300 -1 l150 -13 -183 -123 -183 -123 -123 50 c-73 29 -132 48
-144 44 -15 -3 -32 6 -59 32 -35 34 -38 35 -51 18 -54 -71 -162 -338 -178
-440 -5 -36 -4 -43 10 -43 32 0 14 -16 -98 -90 -62 -41 -117 -83 -122 -94 -6
-13 -24 -23 -49 -28 -22 -5 -43 -15 -48 -23 -4 -8 -19 -15 -33 -15 -14 0 -60
-20 -104 -45 -75 -42 -84 -45 -155 -45 l-76 0 -15 -35 c-26 -63 -13 -308 19
-348 10 -12 26 -13 91 -5 78 9 79 9 162 -28 l83 -37 133 7 c73 4 205 11 293
16 88 5 252 14 365 20 843 43 941 50 967 67 21 14 25 14 42 -1 9 -9 34 -16 54
-16 l37 0 0 46 c0 45 1 46 26 41 15 -2 60 -1 100 4 70 9 76 8 145 -23 l72 -32
20 25 c53 65 121 258 105 300 -3 8 -36 25 -73 39 -56 21 -76 35 -121 86 l-53
61 -356 144 c-195 79 -355 146 -355 149 1 3 37 29 80 59 67 45 86 64 115 117
28 49 47 70 91 98 l57 35 61 -41 c123 -84 312 -146 471 -155 160 -9 166 1 190
300 8 104 21 201 28 220 8 18 50 68 93 110 60 59 86 77 107 77 32 0 90 -27
167 -80 48 -33 66 -39 150 -49 142 -18 136 -15 149 -65 6 -25 11 -60 11 -79 0
-47 -33 -173 -66 -249 -27 -62 -30 -65 -78 -79 -45 -13 -52 -19 -83 -74 -46
-82 -72 -172 -80 -272 -6 -82 -7 -85 -35 -95 -15 -5 -28 -16 -28 -23 0 -11 38
-164 71 -282 8 -30 21 -48 48 -66 73 -48 217 -81 239 -55 14 18 42 123 42 161
0 18 14 45 39 75 76 91 104 155 196 441 26 80 55 162 66 183 l19 38 53 -37
c78 -56 227 -210 266 -275 79 -135 106 -243 98 -388 -7 -124 -25 -180 -71
-220 -107 -94 -224 -378 -202 -492 18 -99 204 -143 517 -123 l117 7 51 108
c56 118 91 237 91 309 0 49 -27 118 -57 148 -15 15 -18 35 -19 123 0 123 -19
204 -69 305 -47 96 -109 174 -275 350 -228 240 -367 469 -425 698 -24 97 -45
250 -45 335 0 47 1 50 49 80 27 18 60 46 73 64 65 85 108 215 107 318 l-1 55
-14 -64 c-17 -78 -56 -189 -62 -173 -2 6 6 56 17 111 26 122 26 128 2 174 -21
41 -14 48 14 17 10 -11 20 -18 22 -16 7 7 -17 48 -44 77 l-24 26 46 130 46
130 121 64 c289 152 368 248 355 433 -4 66 -21 126 -90 331 -121 357 -206 537
-399 847 -129 207 -124 181 -120 538 3 322 -8 498 -48 747 -81 505 -247 880
-517 1174 -344 374 -804 641 -1308 759 -191 45 -339 61 -595 65 -135 2 -261 1
-280 -1z m2220 -3204 c0 -5 -2 -10 -4 -10 -3 0 -8 5 -11 10 -3 6 -1 10 4 10 6
0 11 -4 11 -10z m-4095 -98 c-3 -3 -11 0 -18 7 -9 10 -8 11 6 5 10 -3 15 -9
12 -12z m3930 8 c13 -6 15 -9 5 -9 -8 0 -22 4 -30 9 -18 12 -2 12 25 0z m190
-88 c11 -6 15 -12 8 -12 -7 0 -22 10 -35 23 -13 12 -17 17 -8 11 8 -6 24 -16
35 -22z m52 -18 c-3 -3 -12 -4 -19 -1 -8 3 -5 6 6 6 11 1 17 -2 13 -5z m-4437
-77 c0 -2 -15 -16 -32 -33 l-33 -29 29 33 c28 30 36 37 36 29z m4597 -27 c14
-11 22 -20 18 -20 -4 0 -18 9 -32 20 -14 11 -22 20 -18 20 4 0 18 -9 32 -20z
m60 -26 c-3 -3 -12 -4 -19 -1 -8 3 -5 6 6 6 11 1 17 -2 13 -5z m90 -96 c-3 -8
-6 -5 -6 6 -1 11 2 17 5 13 3 -3 4 -12 1 -19z m84 -122 c13 -9 19 -16 13 -16
-18 0 -94 92 -94 114 0 6 13 -11 29 -36 16 -25 39 -53 52 -62z m93 18 c9 -24
2 -26 -12 -4 -7 11 -8 20 -3 20 5 0 12 -7 15 -16z m13 -56 c-3 -8 -6 -5 -6 6
-1 11 2 17 5 13 3 -3 4 -12 1 -19z m39 -105 c-4 -4 -36 73 -35 85 0 4 9 -13
20 -37 11 -24 18 -46 15 -48z m-5356 74 c0 -2 -12 -14 -27 -28 l-28 -24 24 28
c23 25 31 32 31 24z m5399 -162 c0 -5 -8 6 -19 25 -11 19 -19 40 -19 45 0 6 8
-6 19 -25 11 -19 19 -39 19 -45z m21 -50 c0 -5 -5 -3 -10 5 -5 8 -10 20 -10
25 0 6 5 3 10 -5 5 -8 10 -19 10 -25z m24 -65 c5 -17 4 -20 -2 -10 -5 8 -13
26 -16 40 -5 17 -4 20 2 10 5 -8 13 -26 16 -40z m101 -100 c3 -6 -1 -7 -9 -4
-18 7 -21 14 -7 14 6 0 13 -4 16 -10z m99 -109 c4 -5 -3 -7 -14 -4 -23 6 -26
13 -6 13 8 0 17 -4 20 -9z m-5240 -558 c2 -10 8 -43 11 -73 l7 -55 -21 19
c-23 21 -36 73 -26 105 8 26 22 27 29 4z m-8 -300 c9 -58 41 -183 58 -231 13
-35 13 -53 4 -95 l-11 -52 -38 190 c-21 105 -38 198 -39 208 0 32 19 17 26
-20z m94 -96 c-7 -38 -8 -36 -8 28 0 54 2 63 8 42 5 -16 5 -47 0 -70z m-405
-759 c-8 -50 -42 -179 -49 -186 -3 -2 -8 8 -12 24 -7 26 4 69 46 178 15 40 23
31 15 -16z m389 -284 c9 -3 16 -10 16 -14 0 -14 -30 -40 -46 -40 -17 0 -19 31
-2 48 14 14 12 14 32 6z m4341 -776 c-21 -44 -41 -94 -44 -111 -5 -25 -13 -33
-39 -38 -69 -14 -84 -44 -93 -185 -4 -71 -13 -122 -23 -142 l-17 -33 -49 42
c-28 23 -50 45 -50 48 0 3 5 24 10 46 9 41 6 51 -44 128 l-17 26 88 59 c48 33
138 105 198 160 61 56 112 96 114 90 2 -5 -14 -46 -34 -90z m775 54 c14 -10
34 -35 45 -55 23 -43 35 -47 35 -13 0 14 4 27 9 31 16 9 138 -112 175 -174 41
-67 83 -187 92 -263 l6 -56 -38 -5 c-22 -3 -51 -8 -65 -12 -25 -7 -47 9 -82
59 -13 17 -15 17 -45 2 -55 -29 -59 -25 -65 77 -7 108 -24 161 -101 314 -31
62 -56 116 -56 119 0 12 64 -6 90 -24z m-5482 -789 c228 -130 502 -297 502
-306 0 -6 -16 -57 -37 -114 l-36 -104 -41 7 c-152 25 -290 137 -258 209 13 28
7 30 -34 15 -15 -6 -31 -7 -36 -2 -8 8 -118 300 -118 315 0 11 9 9 58 -20z
m5637 -27 c94 -14 171 -26 171 -26 12 0 -74 -267 -88 -276 -6 -4 -95 2 -199
12 l-189 18 0 33 c0 19 15 75 34 126 19 51 38 105 42 120 6 25 11 28 33 24 14
-3 103 -17 196 -31z m-4779 -826 c52 -189 114 -563 114 -692 l0 -48 -177 0
-176 0 6 113 c12 218 68 512 134 711 l36 109 14 -34 c8 -19 30 -90 49 -159z
m124 -840 l0 -30 -185 0 -185 0 0 30 0 30 185 0 185 0 0 -30z"/>
<path d="M7645 5111 c-75 -44 -166 -125 -206 -185 -42 -63 -76 -163 -89 -266
-5 -41 -10 -342 -10 -667 l0 -593 -315 0 c-173 0 -315 -3 -315 -7 0 -5 51 -87
113 -183 l113 -175 202 -3 202 -2 2 -781 3 -780 188 166 187 166 0 614 0 615
185 0 184 0 3 -817 3 -818 28 -80 c15 -44 44 -104 63 -133 37 -56 141 -147
223 -194 l51 -30 0 1618 0 1618 -52 -49 c-29 -27 -113 -108 -185 -180 l-133
-130 0 -217 0 -218 -185 0 -185 0 0 870 c0 689 -3 870 -12 870 -7 0 -35 -13
-63 -29z"/>
<path d="M10340 4753 c-180 -30 -413 -181 -375 -243 4 -7 31 -27 61 -46 95
-61 115 -124 71 -222 -43 -94 -44 -127 -8 -230 17 -50 31 -98 31 -107 0 -10
-14 -42 -31 -71 -33 -59 -33 -75 7 -134 31 -44 30 -65 -3 -145 -26 -63 -26
-66 -10 -100 l17 -35 -78 -1 c-42 0 -99 -4 -127 -7 -50 -7 -50 -7 -53 -46 -2
-24 2 -42 10 -47 7 -5 63 -9 125 -9 l111 0 4 -52 c6 -77 -7 -118 -43 -131
l-29 -11 1 -236 c2 -708 18 -1398 32 -1480 56 -308 131 -519 248 -691 46 -68
175 -206 184 -197 3 3 1 36 -4 74 -59 414 -59 973 -1 1219 11 44 14 524 4 574
-5 25 -12 32 -40 37 -27 5 -34 11 -34 30 0 19 7 24 35 30 28 5 35 11 35 30 0
19 -7 24 -35 30 -28 5 -35 11 -35 30 0 18 5 24 23 24 33 0 49 15 45 41 -2 18
-11 25 -33 29 -36 6 -51 50 -17 50 36 0 52 12 52 36 0 17 -6 24 -19 24 -32 0
-51 11 -51 30 0 19 19 30 51 30 18 0 19 10 19 246 l0 246 126 -4 c141 -4 121
4 201 -91 17 -20 32 -27 58 -27 68 0 85 83 29 149 -39 47 -100 63 -261 68
l-143 6 0 46 c-4 365 -17 612 -46 839 -17 135 -18 228 -3 270 6 17 30 47 55
67 57 47 60 79 9 101 -32 13 -108 17 -165 7z"/>
<path d="M6545 4590 c-266 -70 -490 -277 -550 -509 -14 -54 -16 -106 -13 -320
4 -249 5 -258 32 -341 58 -173 88 -223 378 -617 226 -306 298 -572 298 -1092
0 -213 -9 -268 -54 -345 -36 -62 -86 -90 -159 -91 -55 0 -61 2 -92 37 -51 55
-60 100 -55 273 2 83 4 272 4 420 0 295 -9 385 -50 474 -32 71 -157 194 -241
239 l-63 33 0 -379 c0 -366 1 -380 20 -397 11 -10 20 -29 20 -42 0 -16 -7 -27
-20 -30 -27 -7 -27 -49 1 -58 28 -9 22 -49 -8 -53 -17 -2 -23 -10 -23 -27 0
-17 6 -25 23 -27 34 -5 35 -44 2 -52 -32 -8 -30 -39 3 -44 29 -4 30 -42 1 -68
-19 -17 -20 -26 -15 -82 9 -90 49 -188 109 -268 45 -59 63 -75 131 -109 77
-39 80 -40 185 -40 96 0 113 3 177 31 92 40 243 130 319 191 70 57 114 131
147 250 21 72 22 99 22 373 0 330 -10 406 -73 565 -70 175 -375 689 -543 917
-27 36 -61 95 -76 130 -27 63 -27 65 -26 293 0 188 3 242 18 295 42 153 128
260 210 260 14 0 40 -13 58 -29 l33 -29 6 -179 c8 -200 20 -258 77 -367 41
-81 179 -226 250 -264 l42 -23 0 219 c0 206 -1 220 -20 237 -26 24 -27 65 -1
65 12 0 20 9 24 26 3 20 -1 27 -19 34 -31 12 -32 47 -2 52 16 2 23 10 23 28 0
18 -7 26 -23 28 -29 4 -32 52 -4 52 10 0 22 3 25 6 10 10 -12 44 -28 44 -22 0
-18 40 6 66 18 20 19 26 9 65 -27 99 -75 151 -168 179 -84 26 -229 26 -327 0z"/>
<path d="M4608 3275 l2 -1305 185 0 185 0 2 985 3 984 120 -78 c119 -77 198
-149 229 -209 14 -28 16 -118 16 -864 0 -773 -1 -835 -18 -868 -35 -70 -41
-71 -436 -77 l-353 -6 -64 -175 c-35 -96 -66 -179 -68 -184 -2 -6 174 -9 485
-6 l489 3 59 30 c76 38 172 133 213 210 70 133 66 86 70 1045 4 968 5 957 -65
1100 -44 90 -153 204 -257 268 -80 50 -787 452 -795 452 -3 0 -4 -587 -2
-1305z"/>
<path d="M9115 4566 c-134 -27 -235 -77 -314 -156 -56 -56 -87 -114 -101 -192
-7 -36 -10 -396 -8 -1039 l3 -984 27 -58 c77 -165 291 -276 531 -277 230 0
441 106 525 265 l27 50 3 1027 2 1026 -21 59 c-43 114 -186 225 -344 267 -85
23 -245 29 -330 12z m199 -416 c35 -43 63 -139 76 -267 6 -59 16 -125 22 -145
6 -20 8 -56 5 -80 -5 -34 1 -60 27 -128 l34 -85 5 -486 c4 -342 2 -490 -6
-498 -8 -8 -8 -17 0 -33 32 -67 21 -93 -59 -132 -72 -35 -165 -43 -248 -22
-111 29 -162 86 -125 142 13 20 15 32 7 48 -6 15 -6 187 0 512 l10 489 26 60
c17 41 27 84 29 135 3 41 9 79 14 84 5 6 9 45 9 87 0 129 37 287 77 331 25 28
67 23 97 -12z"/>
</g>
</svg>
