<?xml version="1.0" ?><!DOCTYPE svg  PUBLIC '-//W3C//DTD SVG 1.1//EN'  'http://www.w3.org/Graphics/SVG/1.1/DTD/svg11.dtd'><svg height="512px" style="enable-background:new 0 0 512 512;" version="1.1" viewBox="0 0 512 512" width="512px" xml:space="preserve" xmlns="http://www.w3.org/2000/svg" xmlns:xlink="http://www.w3.org/1999/xlink"><g id="_x32_53_x2C__education_x2C__knowledge_x2C__learning_x2C__progress_x2C__growth"><g><path d="M405.74,204.883H282.068v35.404H405.74V204.883z M111.212,70.307H99.764    c-3.148,0-6.022,1.288-8.1,3.35c-2.074,2.088-3.362,4.95-3.362,8.099v9.102c0,3.148,1.274,6.039,3.348,8.101    c2.078,2.088,4.952,3.348,8.114,3.348h11.448V70.307z M130.476,83.615c2.116-0.801,4.408-1.23,6.784-1.23    c4.636,0,8.928,1.66,12.262,4.436v-8.5c0-2.833,0.631-5.553,1.762-8.014h-20.808V83.615z M118.256,98.298V98.27l0.014-0.029    l0.014-0.086l0.014-0.057l0.014-0.057c0.716-3.778,2.548-7.156,5.124-9.789V70.307h-5.18V98.298z M276.699,198.214l-0.085,0.229    c0.559-0.373,1.232-0.602,1.944-0.602H409.26c1.931,0,3.521,1.574,3.521,3.521v42.445c0,1.946-1.59,3.521-3.521,3.521H278.559    c-1.944,0-3.52-1.574-3.52-3.521v-41.959l-0.057,0.058l-0.115,0.229l-0.169,0.287l-0.031,0.057l-0.141,0.258l-0.172,0.286l0,0    l-0.2,0.286l-0.158,0.258l-0.014,0.057l-0.2,0.287l-0.144,0.199l-0.06,0.086l-0.2,0.287l-0.126,0.172l-0.074,0.113l-0.229,0.287    l-0.098,0.143l-0.102,0.144l-0.229,0.286l-0.088,0.114l-0.144,0.171l-0.229,0.287l-0.07,0.086l-0.414,0.486l-0.031,0.029    l-0.229,0.257l-0.256,0.286l0,0l-0.26,0.258l-0.228,0.258l-0.043,0.028l-0.273,0.286l-0.2,0.201l-0.084,0.057l-0.46,0.458    l-0.112,0.086l-0.916,0.83l-0.115,0.086l-0.2,0.172l-0.4,0.343l-0.242,0.172l-0.344,0.287l-0.042,0.027l-0.302,0.229l-0.344,0.258    l-0.674,0.486l-0.057,0.028l-0.372,0.258l-0.284,0.2l-0.088,0.058l-0.386,0.258l-0.242,0.143l-0.744,0.458l-0.218,0.144    l-0.414,0.229l-0.157,0.115l-0.257,0.143l-0.442,0.229l-0.102,0.058l-0.33,0.2l-0.441,0.229l-0.061,0.029l-0.399,0.229    l-0.456,0.229l-0.475,0.229l-0.414,0.199l-0.07,0.029l-0.474,0.229l-0.372,0.172l-0.13,0.057l-0.498,0.229l-0.315,0.144    l-0.716,0.314l-0.256,0.115l-0.274,0.113l-0.53,0.201l-0.214,0.086l-0.028,0.027l-0.86,0.315l-0.14,0.058l-1.004,0.372    l-0.056,0.028l-0.516,0.172l-0.586,0.229l-0.544,2.231l0,0l0.028,0.029l0,0l0.028,0.028l0.014,0.028l0.028,0.029l0.032,0.028l0,0    l0.028,0.058l0.028,0.028l0.014,0.028l0.028,0.029h0.014v0.028l0.028,0.028l0.014,0.029h0.014l0.018,0.028l0.014,0.028v0.029    l0.028,0.028l0.014,0.028l0.014,0.029l0.028,0.028l0,0l0.014,0.028l0.014,0.029l0.014,0.027l0.014,0.029l0,0l0.014,0.029    l0.018,0.027l0,0l0.028,0.029v0.029l0.014,0.027l0.014,0.029l0.014,0.028l0,0l0.014,0.028l0.028,0.058l0,0v0.028l0.028,0.029l0,0    v0.028l0.028,0.058l0,0v0.028l0.018,0.028l0.014,0.028v0.029l0.014,0.028l0.014,0.029l0,0v0.028l0.028,0.058v0.028l0.014,0.028    v0.029l0.014,0.027v0.029v0.029l0.014,0.027l0.014,0.029v0.029l0,0v0.057l0.014,0.028l0,0l0.014,0.028v0.058l0,0v0.028    l0.014,0.057l0,0v0.029l0.018,0.029v0.028v0.028v0.028v0.029v0.028v0.028v0.029v0.028v0.029l0.014,0.028v0.028v0.029v0.027v55.469    c0,1.945-1.59,3.52-3.521,3.52h-17.361v117.404l0.032-0.029h0.014c0.526-0.629,1.084-1.259,1.674-1.831    c5.408-5.409,12.862-8.759,21.036-8.759H440.47V157.258H294.418l-0.06,0.086l-0.056,0.086l-0.057,0.057l-0.031,0.029l-0.028,0.057    l-0.042,0.057l-0.116,0.172l-0.056,0.057l-0.042,0.087l-0.057,0.086l-0.06,0.057l0,0l-0.056,0.086l-0.057,0.087l-0.06,0.057    l-0.056,0.086l-0.057,0.057l-0.06,0.086l-0.056,0.086l0,0l-0.057,0.057l-0.06,0.086l-0.057,0.086l-0.112,0.144l-0.06,0.086    l-0.056,0.058l-0.028,0.057l-0.028,0.029l-0.115,0.143l-0.057,0.086l-0.06,0.086l-0.056,0.057l-0.116,0.172l0,0l-0.056,0.058    l-0.229,0.315l-0.057,0.086l-0.06,0.057l-0.027,0.058l-0.889,1.116l-0.027,0.028l-0.028,0.058l-0.256,0.286l-0.061,0.085    l-0.112,0.145l0,0l-0.073,0.085l-0.33,0.401l-0.07,0.114h-0.014l-0.229,0.286l-0.087,0.114c-1.517,1.831-3.148,3.721-4.921,5.639    c-0.716,0.801-1.319,1.631-1.832,2.519l-0.144,0.2l-0.13,0.229l-0.112,0.229l0,0l-0.116,0.229l0,0l-0.13,0.229l0,0l-0.098,0.229    l0,0l-0.116,0.229l0,0l-0.099,0.229l0,0l-0.102,0.229v0.029l-0.102,0.229l0,0l-0.099,0.229l0,0l-0.102,0.229v0.028l-0.084,0.229    l0,0l-0.088,0.229v0.027l-0.084,0.229l0,0l-0.088,0.229v0.029l-0.084,0.229l0,0l-0.057,0.258l0,0l-0.088,0.257l0,0l-0.069,0.229    l0,0l-0.074,0.258l0,0l-0.07,0.257l0,0l-0.07,0.258l0,0l-0.06,0.257l0,0l-0.056,0.258l0,0l-0.057,0.258l0,0l-0.073,0.258l0,0    l-0.057,0.258l0,0l-0.056,0.258v0.028l-0.042,0.257l0,0l-0.06,0.258l0,0l-0.057,0.258l0,0l-0.056,0.258v0.029l-0.046,0.257l0,0    l-0.042,0.258l-0.042,0.286l-0.043,0.258l-0.06,0.258l-0.027,0.286l-0.057,0.257v0.029l-0.028,0.258l-0.045,0.286l-0.042,0.257    l-0.043,0.287l-0.042,0.257l-0.027,0.286l0,0l-0.046,0.286l-0.042,0.258l-0.028,0.286l-0.042,0.286l-0.042,0.258l-0.032,0.286    l-0.027,0.229l-0.028,0.201l-0.028,0.143v0.086l-0.028,0.201l-0.027,0.229l-0.015,0.086l-0.018,0.113l-0.028,0.229l-0.027,0.229    l0,0l-0.028,0.2l-0.028,0.229l-0.028,0.143l-0.087,0.602l-0.028,0.113l-0.028,0.229l-0.028,0.229l0,0l-0.027,0.2l-0.032,0.229    l-0.027,0.171l-0.015,0.028l-0.028,0.229l-0.042,0.229v0.085l-0.027,0.114l-0.046,0.229l-0.099,0.657l-0.028,0.173l-0.014,0.057    l-0.046,0.2l-0.042,0.229l-0.014,0.114l-0.028,0.086l-0.028,0.229l-0.06,0.229v0.027l-0.027,0.172l-0.057,0.229l-0.028,0.201    h-0.014l-0.042,0.229l-0.06,0.229l-0.015,0.114l-0.014,0.086l-0.057,0.229l-0.26,1.088l-0.056,0.229l-0.028,0.115l-0.028,0.086    l-0.06,0.229l-0.056,0.201l-0.028,0.086l-0.028,0.143l-0.073,0.199l-0.057,0.229h-0.014l-0.056,0.229l-0.061,0.201l-0.069,0.229    l-0.07,0.2l-0.145,0.429l-0.073,0.229l-0.07,0.201v0.028l-0.084,0.2l-0.074,0.201l-0.07,0.229L276.699,198.214z M244.987,219.451    l1.088-4.551c0.288-1.26,1.218-2.176,2.348-2.548c21.352-6.84,22.868-18.146,24.271-28.735c0.944-7.041,1.86-13.824,7.185-19.635    l0.084-0.113l0.088-0.086l0.098-0.115l0.088-0.086l0.099-0.113l0.056-0.058l0.032-0.029l0.084-0.114l0.102-0.114l0.084-0.086    l0.088-0.086l0.187-0.229l0.084-0.085l0.084-0.114l0.088-0.086l0.099-0.115l0.073-0.057l0.014-0.029l0.085-0.114l0.087-0.085    l0.099-0.086l0.088-0.115l0.084-0.086l0.172-0.2l0.088-0.114l0.256-0.286l0.088-0.086c0.973-1.145,1.902-2.233,2.763-3.32    c1.702-2.118,3.204-4.122,4.506-6.011l0.13-0.172l0.042-0.057l0.028-0.029c4.436-6.496,6.783-11.934,7.556-16.285    c0.502-2.861,0.288-5.151-0.47-6.812c-0.66-1.431-1.79-2.433-3.25-3.005c-2.204-0.859-5.223-0.802-8.63,0.229    c-13.267,4.008-22.468,20.379-31.21,35.977l-3.12,5.496c-0.944,1.688-3.092,2.289-4.766,1.345c-1.13-0.63-1.79-1.831-1.79-3.034    c-0.172-42.388-0.014-84.775-0.014-127.163c0-3.349-1.386-6.439-3.59-8.644c-2.232-2.232-5.31-3.605-8.672-3.605    c-3.352,0-6.412,1.373-8.644,3.605c-2.232,2.232-3.636,5.323-3.636,8.644v21.352c0,1.946-1.572,3.521-3.506,3.521    c-1.948,0-3.52-1.574-3.52-3.521v-0.286c-0.186-3.148-1.576-6.011-3.706-8.072c-2.218-2.174-5.24-3.49-8.56-3.49    c-3.376,0-6.44,1.373-8.672,3.605l-0.172,0.172c-2.116,2.176-3.433,5.181-3.433,8.472V77.92c0,1.946-1.576,3.521-3.52,3.521    c-1.934,0-3.506-1.574-3.506-3.521v-0.286c-0.186-3.148-1.576-6.011-3.706-8.071c-2.204-2.175-5.24-3.492-8.56-3.492    c-3.148,0-6.026,1.174-8.184,3.148l-0.316,0.287l-0.172,0.143c-2.204,2.232-3.59,5.323-3.59,8.672v22.954    c0,1.946-1.59,3.521-3.523,3.521c-1.931,0-3.52-1.574-3.52-3.521v-0.286c-0.186-3.148-1.559-6.01-3.706-8.07    c-2.204-2.176-5.236-3.492-8.556-3.492c-2.976,0-5.724,1.059-7.872,2.861l0,0l0,0l-0.042,0.029l-0.028,0.028l-0.014,0.028    l-0.032,0.029h-0.014l-0.028,0.028l-0.042,0.028l-0.028,0.029l-0.028,0.028h-0.014l-0.046,0.028l-0.014,0.029l-0.042,0.028l0,0    l-0.056,0.058l-0.231,0.199l-0.028,0.059h-0.028l-0.042,0.057l-0.042,0.029l-0.014,0.027l-0.06,0.058l-0.028,0.028l-0.214,0.229    l-0.028,0.028l-0.056,0.058l0,0l-0.045,0.057l-0.042,0.058h-0.014l-0.042,0.058l-0.06,0.058l0,0l-0.056,0.057l-0.028,0.057h-0.014    c-1.302,1.546-2.218,3.406-2.646,5.438v0.058l-0.032,0.086l0,0l-0.014,0.086l-0.014,0.085l-0.014,0.058l-0.014,0.086l0,0    l-0.014,0.086l-0.014,0.057v0.029v0.086l-0.014,0.057l-0.014,0.029v0.086v0.027l-0.014,0.029l-0.014,0.086v0.029v0.057    l-0.014,0.086v0.028l-0.018,0.058v0.086l0,0v0.086v0.057l-0.014,0.029v0.086l-0.014,0.057v0.029v0.086v0.027v0.029v0.086v0.057    v0.029l-0.014,0.086v0.028v0.058v0.086v0.028v0.058v0.086v4.149v0.114v97.025l9.318,16.486H244.987z M141.324,241.947    c2.246-2.232,5.338-3.635,8.756-3.635c3.394,0,6.5,1.402,8.732,3.635c2.26,2.261,3.65,5.352,3.65,8.758s-1.39,6.497-3.622,8.758    c-2.26,2.262-5.366,3.635-8.76,3.635c-3.432,0-6.524-1.373-8.77-3.635c-2.232-2.232-3.622-5.323-3.622-8.758    C137.688,247.299,139.078,244.208,141.324,241.947z M228.303,274.918h0.084h17.358v-48.426H132.28h-0.06h-7.226v48.426H228.303z     M150.08,245.353c-1.488,0-2.832,0.602-3.79,1.546c-0.976,1.002-1.562,2.348-1.562,3.807c0,1.488,0.604,2.834,1.562,3.777    c0.958,0.975,2.302,1.575,3.79,1.575c1.488,0,2.822-0.601,3.78-1.546c0.972-0.973,1.572-2.318,1.572-3.807    c0-1.459-0.6-2.834-1.558-3.777C152.901,245.954,151.568,245.353,150.08,245.353z M107.134,294.467    c1.99,1.66,3.538,3.863,4.45,6.383c3.18,0.515,6.04,2.061,8.216,4.235c2.506,2.519,4.152,5.867,4.436,9.56    c2.776,0.658,5.24,2.09,7.198,4.035c2.776,2.776,4.479,6.584,4.479,10.762c0,4.179-1.702,7.985-4.464,10.732    c-2.776,2.777-6.566,4.494-10.746,4.494H55.745c-4.19,0-7.984-1.717-10.746-4.465c-2.762-2.776-4.464-6.555-4.464-10.762    c0-1.946,0.386-3.863,1.102-5.639l0.084-0.229c0.544-1.288,1.26-2.519,2.12-3.578l-0.088-1.803c0-4.751,1.92-9.072,5.025-12.164    c3.134-3.119,7.426-5.037,12.164-5.037l1.646,0.086c0.499-3.836,2.274-7.299,4.878-9.902c3.134-3.092,7.426-5.038,12.15-5.038    c3.004,0,5.84,0.802,8.3,2.146c1.646,0.916,3.12,2.062,4.352,3.435l0.93-0.286c1.344-0.372,2.734-0.572,4.106-0.572    C101.052,290.86,104.488,292.205,107.134,294.467z M440.47,395.785H254.663c-6.268,0-11.95,2.548-16.056,6.668l-0.2,0.172v0.029    l-0.186,0.171l0,0l-0.186,0.201l0,0l-0.172,0.2h-0.014l-0.172,0.2l-0.014,0.028l-0.172,0.172l-0.014,0.028l-0.158,0.172    l-0.014,0.029l-0.158,0.171l-0.028,0.029l-0.144,0.2l-0.028,0.028l-0.144,0.172l-0.028,0.028l-0.13,0.201l-0.028,0.028    l-0.13,0.172l-0.042,0.028l-0.13,0.2l-0.028,0.029l-0.13,0.171l-0.042,0.058l-0.112,0.172l-0.032,0.058l-0.112,0.171l-0.042,0.058    l-0.116,0.172l-0.042,0.058l-0.116,0.143l-0.028,0.086l-0.116,0.143l-0.042,0.086l-0.098,0.144l-0.032,0.086l-0.242,0.4    l-0.042,0.086l-0.087,0.144l-0.056,0.086l-0.084,0.143l-0.045,0.086l-0.084,0.144l-0.042,0.114l-0.088,0.143l-0.056,0.086    l-0.056,0.144l-0.06,0.114l-0.07,0.144l-0.042,0.114l-0.074,0.113l-0.056,0.115l-0.056,0.144l-0.06,0.113l-0.056,0.145    l-0.056,0.114l-0.045,0.113l-0.057,0.145l-0.056,0.113l-0.057,0.145l-0.06,0.114l-0.042,0.143l-0.042,0.115l-0.06,0.142    l-0.056,0.115l-0.042,0.143l-0.042,0.114l-0.06,0.145l-0.028,0.113l-0.056,0.145l-0.028,0.114l-0.06,0.143l-0.084,0.287    l-0.028,0.085l-0.06,0.171l-0.028,0.086l-0.056,0.172l-0.014,0.114l-0.042,0.172l-0.028,0.086l-0.06,0.172l-0.014,0.086    l-0.042,0.2l-0.028,0.086l-0.042,0.2l-0.06,0.258l-0.014,0.086l-0.042,0.2l-0.014,0.058l-0.056,0.2v0.086l-0.046,0.2l-0.014,0.058    l-0.028,0.229l-0.014,0.058l-0.042,0.229v0.058l-0.028,0.229l-0.014,0.029l-0.032,0.258l-0.014,0.028l-0.028,0.258l-0.028,0.286    v0.028l-0.028,0.258v0.028l-0.014,0.258h-0.014v0.286h-0.014l-0.014,0.286l0,0v0.286l0,0l-0.018,0.286h-0.014v0.286v0.315    c0,6.268,2.562,11.964,6.672,16.056c4.134,4.15,9.816,6.698,16.084,6.698h0.098H440.47v-10.189H262.948v-7.041H440.47v-10.819    H262.948v-7.04H440.47V395.785z M299.11,255.799h89.598v7.041H299.11V255.799z M299.11,273.974h89.598v7.041H299.11V273.974z     M299.11,292.178h89.598v7.04H299.11V292.178z M251.255,102.334V70.307h40.671l25.532,15.999l-25.532,16.028    C272.564,102.334,266.11,102.334,251.255,102.334z M98.248,135.305c0-1.918,1.576-3.491,3.506-3.491    c1.934,0,3.506,1.573,3.506,3.491v65.715l6.742,6.754c0.685,0.688,1.042,1.574,1.042,2.49v43.104c0,1.945-1.572,3.521-3.52,3.521    c-1.93,0-3.52-1.575-3.52-3.521v-41.672l-6.724-6.727c-0.632-0.63-1.032-1.518-1.032-2.49V135.305z M83.954,485.999    c-1.934,0-3.523-1.574-3.523-3.521s1.59-3.52,3.523-3.52h267.607c1.93,0,3.52,1.573,3.52,3.52s-1.59,3.521-3.52,3.521H83.954z     M240.653,468.024c-1.934,0-3.506-1.573-3.506-3.52c0-1.918,1.572-3.521,3.506-3.521h185.193c1.931,0,3.521,1.604,3.521,3.521    c0,1.946-1.59,3.52-3.521,3.52H240.653z M444.79,468.024c-1.944,0-3.52-1.573-3.52-3.52c0-1.918,1.575-3.521,3.52-3.521h23.155    c1.948,0,3.521,1.604,3.521,3.521c0,1.946-1.572,3.52-3.521,3.52H444.79z M73.404,468.568c-1.944,0-3.52-1.573-3.52-3.52    c0-1.918,1.576-3.521,3.52-3.521h87.751c1.948,0,3.523,1.604,3.523,3.521c0,1.946-1.576,3.52-3.523,3.52H73.404z M224.867,418.539    v-0.086V418.539z" style="fill-rule:evenodd;clip-rule:evenodd;"/></g></g><g id="Layer_1"/></svg>
