<svg xmlns="http://www.w3.org/2000/svg" width="600" height="652.5"><defs><filter y="-.25" height="1.5" id="a" color-interpolation-filters="sRGB"><feGaussianBlur stdDeviation="5" result="result6"/><feComposite result="result8" in="SourceGraphic" operator="atop" in2="result6"/><feComposite result="result9" in2="SourceAlpha" in="result8"/><feColorMatrix values="1 0 0 0 0 0 1 0 0 0 0 0 1 0 0 0 0 0 1 0" result="result10"/><feBlend in="result10" in2="result6"/></filter></defs><g transform="translate(50 76.25)" fill="#fff" filter="url(#a)"><path d="M250 32.5c-34.21 0-65.156 13.211-87.721 34.631-26.491 7.544-51.927 22.163-73.106 43.074-23.193 22.67-41.073 51.908-54.038 83.138-12.999 31.348-21.411 64.728-26.821 98.382C2.904 325.418.462 359.463 0 393.47h31.275c-.231-32.13 1.484-64.22 5.872-95.646 4.42-31.348 11.547-62.11 22.631-90.447 11.052-28.339 26.228-54.136 45.758-74.188 8.412-8.677 17.683-16.143 27.48-22.475-1.78 4.613-3.298 9.342-4.486 14.189-14.945 19.152-28.009 40.377-38.632 63.204-11.546 24.664-20.355 51.008-26.755 77.978-6.367 27.01-10.425 54.566-12.866 82.161-2.408 27.557-3.101 55.23-3.398 82.24h31.242c-.33-26.814-.297-53.042 1.352-79.152 1.683-26.032 4.85-51.83 10.095-76.923 7.555-36.195 20.026-70.63 37.345-101.314 1.65 9.264 4.256 18.254 7.984 26.697-18.079 40.338-27.514 84.467-33.221 128.205-5.971 46.592-7.357 93.536-7.918 139.502H125c-.726-45.693-.66-90.76 3.76-135.163 3.333-33.224 8.908-66.292 18.74-96.975l-6.863 130.355s12.207 12 32.43 23.804l2.705-51.595 27.349-27.751h15.637l-23.456 27.751v111.086h109.396V337.926l-23.456-27.751h15.637l27.349 27.751 2.705 51.595c20.223-11.804 32.43-23.804 32.43-23.804L352.5 235.401c9.83 30.683 15.373 63.712 18.738 96.936 4.42 44.403 4.487 89.47 3.761 135.163h31.242c-.561-45.966-1.914-92.91-7.918-139.502-5.707-43.738-15.142-87.867-33.221-128.205 3.728-8.443 6.334-17.433 7.984-26.697 17.32 30.684 29.79 65.12 37.345 101.314 5.245 25.094 8.412 50.891 10.095 76.923 1.649 26.11 1.682 52.338 1.352 79.152h31.242c-.297-27.01-.99-54.683-3.398-82.24-2.441-27.595-6.5-55.151-12.866-82.16-6.4-26.97-15.209-53.315-26.755-77.98-10.623-22.826-23.687-44.05-38.632-63.203-1.188-4.847-2.705-9.576-4.487-14.189 9.831 6.332 19.069 13.798 27.481 22.475 19.497 20.052 34.706 45.85 45.758 74.188 11.084 28.338 18.21 59.1 22.631 90.447 4.388 31.426 6.103 63.517 5.872 95.646H500c-.462-34.006-2.903-68.05-8.314-101.744-5.41-33.654-13.79-67.034-26.82-98.382-12.933-31.23-30.846-60.467-54.039-83.138-21.146-20.95-46.615-35.53-73.106-43.074C315.156 45.711 284.211 32.5 250 32.5zm0 18.488c43.151 0 78.12 33.185 78.12 74.07 0 40.885-34.969 74.031-78.12 74.031s-78.12-33.146-78.12-74.03c0-40.886 34.969-74.07 78.12-74.07zm-85.676 189.299c18.508 16.807 42.327 28.182 68.785 31.66-2.21 8.17-8.413 19.7-26.062 19.7-29.46 0-41.436-28.69-42.723-51.36zm171.352 0c-1.287 22.67-13.262 51.36-42.723 51.36-17.65 0-23.852-11.53-26.062-19.7 26.458-3.478 50.277-14.853 68.785-31.66zm0 0"/><ellipse ry="49.972" rx="57.834" cy="124.96" cx="250.035"/></g></svg>