<?xml version="1.0" encoding="iso-8859-1"?>
<!-- Uploaded to: SVG Repo, www.svgrepo.com, Generator: SVG Repo Mixer Tools -->
<svg height="800px" width="800px" version="1.1" id="Layer_1" xmlns="http://www.w3.org/2000/svg" xmlns:xlink="http://www.w3.org/1999/xlink" 
	 viewBox="0 0 392.598 392.598" xml:space="preserve">
<path style="fill:#FFFFFF;" d="M196.299,115.006c-44.8,0-81.261,36.461-81.261,81.261s36.461,81.261,81.261,81.261
	s81.261-36.461,81.261-81.261S241.099,115.006,196.299,115.006z"/>
<path style="fill:#56ACE0;" d="M295.079,59.669c0,20.881,17.002,37.883,37.883,37.883s37.883-17.002,37.883-37.883
	s-17.002-37.883-37.883-37.883C312.081,21.786,295.079,38.788,295.079,59.669z"/>
<g>
	<path style="fill:#FFC10D;" d="M332.897,295.046c-20.881,0-37.883,17.002-37.883,37.883s17.002,37.883,37.883,37.883
		c20.881,0,37.883-17.002,37.883-37.883S353.778,295.046,332.897,295.046z"/>
	<path style="fill:#FFC10D;" d="M46.836,21.786c-13.834,0-25.018,11.184-25.018,25.018s11.313,25.018,25.018,25.018
		s25.018-11.184,25.018-25.018S60.671,21.786,46.836,21.786z"/>
</g>
<path style="fill:#56ACE0;" d="M68.622,298.861c-13.834,0-25.018,11.184-25.018,25.018c0,13.834,11.184,25.018,25.018,25.018
	s25.018-11.184,25.018-25.018C93.705,310.109,82.457,298.861,68.622,298.861z"/>
<path style="fill:#194F82;" d="M332.897,273.261c-12.541,0-24.113,3.879-33.745,10.537l-22.82-22.885
	c14.287-17.713,22.949-40.21,22.949-64.646s-8.663-46.998-22.949-64.646l22.82-22.82c9.568,6.659,21.269,10.537,33.745,10.537
	c32.905,0,59.669-26.764,59.669-59.669S365.802,0,332.897,0s-59.669,26.764-59.669,59.669c0,12.541,3.879,24.113,10.537,33.745
	l-22.82,22.82c-17.713-14.287-40.21-22.949-64.646-22.949s-46.998,8.663-64.646,22.949L86.788,71.37
	c4.396-7.111,6.982-15.451,6.982-24.436C93.77,21.075,72.76,0,46.966,0S0.032,21.01,0.032,46.804s21.01,46.804,46.804,46.804
	c8.986,0,17.325-2.521,24.436-6.982l44.865,44.994c-14.287,17.713-22.95,40.21-22.95,64.646c0,25.018,9.051,48.032,23.984,65.939
	l-23.273,22.303c-7.24-4.719-15.903-7.499-25.277-7.499c-25.794,0-46.804,21.01-46.804,46.804s21.01,46.804,46.804,46.804
	s46.804-21.01,46.804-46.804c0-8.663-2.392-16.679-6.465-23.661l23.855-22.885c17.519,13.77,39.499,22.044,63.418,22.044
	c24.501,0,46.998-8.663,64.646-22.949l22.82,22.82c-6.659,9.568-10.537,21.269-10.537,33.745c0,32.905,26.764,59.669,59.669,59.669
	s59.669-26.764,59.669-59.669C392.566,299.96,365.867,273.261,332.897,273.261z M370.78,59.669
	c0,20.881-17.002,37.883-37.883,37.883s-37.883-17.002-37.883-37.883s17.002-37.883,37.883-37.883
	C353.778,21.786,370.78,38.788,370.78,59.669z M46.836,71.887c-13.834,0-25.018-11.184-25.018-25.018s11.184-25.018,25.018-25.018
	s25.018,11.313,25.018,25.018S60.671,71.887,46.836,71.887z M68.622,348.962c-13.834,0-25.018-11.184-25.018-25.018
	c0-13.834,11.184-25.018,25.018-25.018s25.018,11.184,25.018,25.018C93.705,337.778,82.457,348.962,68.622,348.962z
	 M196.299,277.527c-44.8,0-81.261-36.461-81.261-81.261s36.461-81.261,81.261-81.261s81.261,36.461,81.261,81.261
	S241.099,277.527,196.299,277.527z M332.897,370.747c-20.881,0-37.883-17.002-37.883-37.883s17.002-37.883,37.883-37.883
	c20.881,0,37.883,17.002,37.883,37.883S353.778,370.747,332.897,370.747z"/>
<path style="fill:#FFC10D;" d="M196.299,255.677c-32.776,0-59.41-26.634-59.41-59.41s26.634-59.41,59.41-59.41
	s59.41,26.634,59.41,59.41S229.075,255.677,196.299,255.677z"/>
</svg>