<svg xmlns="http://www.w3.org/2000/svg" width="400" height="401.684"><path d="M263.462 322.58v18.976c0 21.03-16.686 32.379-32.396 32.379H168.9c-15.692 0-32.379-11.349-32.379-32.38V322.58c-21.72-3.267-40.478-12.595-50.143-25.762-7.964-10.86-9.951-23.59-5.775-36.842 3.098-9.85 12.106-34.955 17.292-49.284-11.45-23.22-3.081-51.793-3.081-51.793s37.851 36.386 104.176 51.591c0 0-4.243 19.01-10.524 24.55-5.354 4.714-38.559 25.543-70.635-.186-4.546 12.696-9.496 26.722-11.534 33.205-1.582 5.034-1.027 8.991 1.802 12.847 4.816 6.567 15.676 11.803 28.422 14.38v-15.879a16.86 16.86 0 017.493-14.009l18.673-12.46c7.746-5.152 18.202-3.081 23.354 4.664 5.153 7.729 3.082 18.185-4.664 23.354l-11.197 7.46v51.692l59.556.168.033-51.86-13.167-8.773c-7.745-5.17-9.816-15.609-4.664-23.354 5.152-7.729 15.575-9.833 23.354-4.664l20.677 13.773a16.86 16.86 0 017.493 14.01v15.877c12.73-2.576 23.59-7.812 28.422-14.38 2.829-3.855 3.385-7.812 1.802-12.83-2.038-6.482-7.005-20.508-11.551-33.22-32.076 25.728-65.28 4.9-70.635.185-6.28-5.54-10.523-24.55-10.523-24.55 66.34-15.205 104.175-51.591 104.175-51.591s8.369 28.557-3.081 51.776c5.186 14.33 14.194 39.434 17.293 49.285 4.175 13.268 2.188 26.014-5.776 36.84-9.665 13.185-28.422 22.513-50.126 25.78zm50.092-257.215C294.157 23.287 254.891 0 199.984 0c-54.825 0-94.057 23.27-113.505 65.348C75.383 67.99 0 90.015 0 201.869c0 65.583 15.087 154.706 15.743 158.478 1.112 6.567 6.82 11.197 13.269 11.197.757 0 1.515-.067 2.29-.202 7.34-1.246 12.258-8.2 11.012-15.541-.152-.91-15.357-90.622-15.357-153.932 0-66.408 29.686-93.383 49.184-103.94a185.194 185.194 0 00-3.115 24.583C61.206 143.83 35.309 203.84 51.91 299.175c3.368 19.414 23.051 89.695 23.876 92.675 1.667 5.961 7.072 9.834 12.965 9.834a13.6 13.6 0 003.637-.489c7.156-2.003 11.349-9.446 9.345-16.602-.202-.724-20.138-71.93-23.286-90.032-14.97-85.923 8.048-140.057 17.763-158.191 3.907-2.543 6.736-6.618 7.022-11.635 3.553-62.654 36.117-94.427 96.75-94.427 60.717 0 93.299 31.773 96.784 94.41.27 5 3.166 9.076 7.072 11.618 9.75 17.916 32.8 71.578 17.713 158.209-3.165 18.083-23.084 89.307-23.286 90.032-2.004 7.172 2.172 14.598 9.345 16.602 1.212.353 2.441.488 3.637.488 5.91 0 11.315-3.873 12.982-9.833.842-2.98 20.491-73.262 23.876-92.66 16.602-95.318-9.278-155.328-21.115-176.662a188.125 188.125 0 00-3.081-24.583c19.481 10.557 49.15 37.532 49.15 103.923 0 63.26-15.205 153.023-15.357 153.932-1.263 7.341 3.671 14.295 10.995 15.541a13.28 13.28 0 002.29.202c6.45 0 12.14-4.63 13.252-11.197.656-3.772 15.76-92.894 15.76-158.478-.017-111.702-75.181-133.81-86.446-136.487z" fill="#e6e6e6"/></svg>