<?xml version="1.0" encoding="iso-8859-1"?>
<!-- Generator: Adobe Illustrator 19.0.0, SVG Export Plug-In . SVG Version: 6.00 Build 0)  -->
<svg version="1.1" id="Layer_1" xmlns="http://www.w3.org/2000/svg" xmlns:xlink="http://www.w3.org/1999/xlink" x="0px" y="0px"
	 viewBox="0 0 511.996 511.996" style="enable-background:new 0 0 511.996 511.996;" xml:space="preserve">
<circle style="fill:#365980;" cx="254.311" cy="258.24" r="253.756"/>
<circle style="fill:#77ACDE;" cx="254.311" cy="258.24" r="210.236"/>
<circle style="fill:#F0D933;" cx="254.311" cy="258.24" r="156.321"/>
<circle style="fill:#D05C4F;" cx="254.311" cy="258.24" r="97.772"/>
<circle style="fill:#ECE5D5;" cx="254.311" cy="258.24" r="27.068"/>
<g style="opacity:0.4;">
	<circle style="fill:#494949;" cx="254.311" cy="258.24" r="15.897"/>
</g>
<polygon style="fill:#D05C4F;" points="446.059,65.386 422.95,0 344.862,78.088 367.976,143.474 433.358,166.583 511.441,88.495 "/>
<g>
	<polygon style="fill:#B65246;" points="398.81,112.631 375.697,47.249 363.98,58.97 387.093,124.352 452.479,147.466 
		464.192,135.744 	"/>
	<polygon style="fill:#B65246;" points="429.303,82.138 406.19,16.76 394.468,28.474 417.581,93.86 482.967,116.973 
		494.685,105.252 	"/>
</g>
<path style="fill:#494949;" d="M262.708,264.551c-4.351,4.351-11.117,4.634-15.113,0.638l0,0c-4-3.996-3.713-10.766,0.638-15.117
	L452.838,45.464c4.351-4.347,11.117-4.634,15.117-0.634l0,0c3.996,3.996,3.712,10.762-0.638,15.113L262.708,264.551z"/>
<g>
</g>
<g>
</g>
<g>
</g>
<g>
</g>
<g>
</g>
<g>
</g>
<g>
</g>
<g>
</g>
<g>
</g>
<g>
</g>
<g>
</g>
<g>
</g>
<g>
</g>
<g>
</g>
<g>
</g>
</svg>
