<?xml version="1.0" encoding="iso-8859-1"?>
<svg version="1.1" id="Layer_1" xmlns="http://www.w3.org/2000/svg" xmlns:xlink="http://www.w3.org/1999/xlink" x="0px" y="0px"
	 viewBox="0 0 512 512" style="enable-background:new 0 0 512 512;" xml:space="preserve">
<g transform="translate(1 1)">
	<path style="fill:#FFA800;" d="M476.867,425.667c14.507,0,25.6-11.093,25.6-25.6v-307.2V24.6c0-9.387-7.68-17.067-17.067-17.067
		H109.933c-9.387,0-17.067,7.68-17.067,17.067v34.133H408.6l0,0c23.893,0,42.667,18.773,42.667,42.667l0,0l0,0v298.667
		C451.267,414.573,462.36,425.667,476.867,425.667"/>
	<path style="fill:#FFE100;" d="M476.867,425.667c0.853-0.853,0-11.093,0-25.6v-307.2V24.6c0-9.387-6.827-17.067-16.213-17.067
		H109.08c-8.533,0-16.213,7.68-16.213,17.067v34.133h320l0,0c22.187,0,40.107,18.773,40.107,42.667l0,0l0,0v298.667
		C452.973,414.573,463.213,425.667,476.867,425.667"/>
	<path style="fill:#FFA800;" d="M365.933,101.4c0-23.893,18.773-42.667,42.667-42.667H101.4c-9.387,0-17.067,7.68-17.067,17.067
		v409.6c0,9.387,7.68,17.067,17.067,17.067h247.467c9.387,0,17.067-7.68,17.067-17.067V101.4z"/>
	<path style="fill:#FFFFFF;" d="M289.133,101.4c0-23.893,18.773-42.667,42.667-42.667H24.6c-9.387,0-17.067,7.68-17.067,17.067
		v409.6c0,9.387,7.68,17.067,17.067,17.067h247.467c9.387,0,17.067-7.68,17.067-17.067V101.4z"/>
	<path style="fill:#FFE100;" d="M340.333,101.4c0-23.893,18.773-42.667,42.667-42.667H50.2c-9.387,0-17.067,7.68-17.067,17.067
		v409.6c0,9.387,7.68,17.067,17.067,17.067h273.067c9.387,0,17.067-7.68,17.067-17.067V101.4z"/>
	<path style="fill:#00AD55;" d="M314.733,229.4c0,70.827-57.173,128-128,128s-128-57.173-128-128s57.173-128,128-128
		S314.733,158.573,314.733,229.4"/>
	<path style="fill:#00DA6C;" d="M289.133,229.4c0,70.827-51.2,128-115.2,128s-115.2-57.173-115.2-128s51.2-128,115.2-128
		S289.133,158.573,289.133,229.4"/>
	<g>
		<path style="fill:#63D3FD;" d="M186.733,186.733c7.68,0,15.36,2.56,22.187,5.973l16.213-40.107
			c-11.947-5.12-24.747-8.533-38.4-8.533s-26.453,3.413-38.4,9.387l16.213,40.107C171.373,189.293,179.053,186.733,186.733,186.733"
			/>
		<path style="fill:#63D3FD;" d="M229.4,225.987c0,0.853,0,1.707,0,3.413c0,15.36-8.533,29.013-21.333,36.693l26.453,34.133
			c11.093-6.827,19.627-17.067,26.453-29.013c6.827-11.947,9.387-25.6,10.24-38.4L229.4,225.987z"/>
		<path style="fill:#63D3FD;" d="M144.067,229.4c0-0.853,0-1.707,0-3.413L101.4,231.96c0.853,12.8,3.413,26.453,10.24,38.4
			c6.827,11.947,15.36,22.187,26.453,29.013l26.453-34.133C152.6,258.413,144.067,244.76,144.067,229.4"/>
	</g>
	<path d="M186.733,365.933C111.64,365.933,50.2,304.493,50.2,229.4S111.64,92.867,186.733,92.867s136.533,61.44,136.533,136.533
		S261.827,365.933,186.733,365.933z M186.733,109.933c-65.707,0-119.467,53.76-119.467,119.467s53.76,119.467,119.467,119.467
		S306.2,295.107,306.2,229.4S252.44,109.933,186.733,109.933z"/>
	<path d="M208.92,201.24c-1.707,0-3.413,0-4.267-0.853c-11.093-6.827-23.893-6.827-34.987,0c-2.56,1.707-5.12,1.707-6.827,0.853
		c-2.56-0.853-4.267-2.56-5.12-5.12l-16.213-40.107c-1.707-4.267,0-8.533,4.267-11.093c26.453-13.653,57.173-13.653,83.627,0
		c4.267,1.707,5.973,6.827,4.267,11.093l-16.213,40.107c-0.853,2.56-2.56,4.267-5.12,5.12
		C210.627,201.24,209.773,201.24,208.92,201.24z M186.733,178.2c5.973,0,11.947,0.853,17.067,3.413l9.387-23.893
		c-17.067-6.827-36.693-6.827-54.613,0l9.387,23.893C174.787,179.053,180.76,178.2,186.733,178.2z"/>
	<path d="M234.52,308.76c-2.56,0-5.12-0.853-6.827-3.413l-26.453-34.133c-1.707-1.707-1.707-4.267-1.707-6.827
		c0.853-2.56,1.707-4.267,4.267-5.973c10.24-5.973,17.067-17.067,17.067-29.013c0-0.853,0-1.707,0-2.56
		c0-2.56,0.853-5.12,2.56-6.827c1.707-1.707,4.267-2.56,6.827-2.56l42.667,5.973c4.267,0.853,7.68,4.267,7.68,9.387
		c-0.853,16.213-5.12,30.72-11.947,41.813c-8.533,14.507-17.92,24.747-29.013,32.427C237.933,307.907,236.227,308.76,234.52,308.76z
		 M220.867,267.8l16.213,20.48c6.827-5.12,11.947-12.8,17.92-21.333c4.267-7.68,6.827-16.213,8.533-26.453l-25.6-3.413
		C236.227,248.173,230.253,259.267,220.867,267.8z"/>
	<path d="M138.947,308.76c-1.707,0-3.413-0.853-4.267-1.707c-11.093-6.827-21.333-17.92-29.013-32.427
		c-6.827-11.093-10.24-25.6-11.947-41.813c0-4.267,2.56-8.533,7.68-9.387l42.667-5.973c2.56,0,5.12,0.853,6.827,2.56
		c1.707,1.707,2.56,4.267,2.56,6.827c0,0.853,0,0.853,0,1.707v0.853c0,11.947,5.973,23.04,17.067,29.013
		c1.707,0.853,3.413,3.413,4.267,5.973c0.853,2.56,0,5.12-1.707,6.827l-26.453,34.133
		C143.213,307.053,141.507,308.76,138.947,308.76z M110.787,239.64c1.707,10.24,4.267,18.773,8.533,26.453
		c5.12,9.387,11.093,16.213,17.92,21.333l16.213-20.48c-9.387-8.533-15.36-19.627-17.067-31.573L110.787,239.64z"/>
	<path d="M195.267,229.4c0,5.12-3.413,8.533-8.533,8.533c-5.12,0-8.533-3.413-8.533-8.533c0-5.12,3.413-8.533,8.533-8.533
		C191.853,220.867,195.267,224.28,195.267,229.4"/>
	<path d="M348.867,511H24.6C10.093,511-1,499.907-1,485.4V75.8c0-14.507,11.093-25.6,25.6-25.6h384c5.12,0,8.533,3.413,8.533,8.533
		s-3.413,8.533-8.533,8.533c-18.773,0-34.133,15.36-34.133,34.133v384C374.467,499.907,363.373,511,348.867,511z M24.6,67.267
		c-5.12,0-8.533,3.413-8.533,8.533v409.6c0,5.12,3.413,8.533,8.533,8.533h324.267c5.12,0,8.533-3.413,8.533-8.533v-384
		c0-12.8,5.12-24.747,12.8-34.133H24.6z"/>
	<path d="M476.867,434.2c-18.773,0-34.133-15.36-34.133-34.133V101.4c0-18.773-15.36-34.133-34.133-34.133H92.867
		c-5.12,0-8.533-3.413-8.533-8.533V24.6c0-14.507,11.093-25.6,25.6-25.6H485.4C499.907-1,511,10.093,511,24.6v375.467
		C511,418.84,495.64,434.2,476.867,434.2z M101.4,50.2h307.2c28.16,0,51.2,23.04,51.2,51.2v298.667
		c0,9.387,7.68,17.067,17.067,17.067s17.067-7.68,17.067-17.067V24.6c0-5.12-3.413-8.533-8.533-8.533H109.933
		c-5.12,0-8.533,3.413-8.533,8.533V50.2z"/>
	<path d="M408.6,485.4c-5.12,0-8.533-3.413-8.533-8.533V101.4c0-5.12,3.413-8.533,8.533-8.533c5.12,0,8.533,3.413,8.533,8.533
		v375.467C417.133,481.987,413.72,485.4,408.6,485.4z"/>
	<path d="M263.533,417.133H50.2c-5.12,0-8.533-3.413-8.533-8.533c0-5.12,3.413-8.533,8.533-8.533h213.333
		c5.12,0,8.533,3.413,8.533,8.533C272.067,413.72,268.653,417.133,263.533,417.133z"/>
	<path d="M306.2,459.8h-256c-5.12,0-8.533-3.413-8.533-8.533s3.413-8.533,8.533-8.533h256c5.12,0,8.533,3.413,8.533,8.533
		S311.32,459.8,306.2,459.8z"/>
</g>
</svg>
