<?xml version="1.0" encoding="iso-8859-1"?>
<!-- Generator: Adobe Illustrator 19.0.0, SVG Export Plug-In . SVG Version: 6.00 Build 0)  -->
<svg version="1.1" id="Layer_1" xmlns="http://www.w3.org/2000/svg" xmlns:xlink="http://www.w3.org/1999/xlink" x="0px" y="0px"
	 viewBox="0 0 512 512" style="enable-background:new 0 0 512 512;" xml:space="preserve">
<g>
	<path style="fill:#E8EDEE;" d="M497.876,459.034H296.607c-7.945,0-14.124-6.179-14.124-14.124V296.607
		c0-7.945,6.179-14.124,14.124-14.124h201.269c7.945,0,14.124,6.179,14.124,14.124V444.91
		C512,452.855,505.821,459.034,497.876,459.034"/>
	<path style="fill:#E8EDEE;" d="M215.393,176.552H14.124C6.179,176.552,0,170.372,0,162.428V14.124C0,6.179,6.179,0,14.124,0
		h201.269c7.945,0,14.124,6.179,14.124,14.124v148.303C229.517,170.372,223.338,176.552,215.393,176.552"/>
</g>
<g>
	<path style="fill:#38454F;" d="M35.31,128.883V47.669c0-7.062,5.297-12.359,12.359-12.359h134.179
		c7.062,0,12.359,5.297,12.359,12.359v81.214c0,7.062-5.297,12.359-12.359,12.359H47.669
		C40.607,141.241,35.31,135.945,35.31,128.883"/>
	<path style="fill:#38454F;" d="M317.793,411.366v-81.214c0-7.062,5.297-12.359,12.359-12.359h134.179
		c7.062,0,12.359,5.297,12.359,12.359v81.214c0,7.062-5.297,12.359-12.359,12.359H330.152
		C323.09,423.724,317.793,418.428,317.793,411.366"/>
</g>
<g>
	<path style="fill:#B0B6BB;" d="M156.248,229.517H73.269c-6.179,0-11.476-5.297-11.476-11.476v-41.49h105.931v41.49
		C167.724,224.221,162.428,229.517,156.248,229.517"/>
	<path style="fill:#B0B6BB;" d="M438.731,512h-83.862c-6.179,0-11.476-5.297-11.476-11.476v-41.49h105.931v41.49
		C450.207,506.703,444.91,512,438.731,512"/>
</g>
<g>
	<path style="fill:#42B05C;" d="M114.759,273.655c-5.297,0-8.828-3.531-8.828-8.828v-35.31c0-5.297,3.531-8.828,8.828-8.828
		s8.828,3.531,8.828,8.828v35.31C123.586,270.124,120.055,273.655,114.759,273.655 M114.759,335.448
		c-5.297,0-8.828-3.531-8.828-8.828v-26.483c0-5.297,3.531-8.828,8.828-8.828s8.828,3.531,8.828,8.828v26.483
		C123.586,331.917,120.055,335.448,114.759,335.448 M114.759,397.241c-5.297,0-8.828-3.531-8.828-8.828v-26.483
		c0-5.297,3.531-8.828,8.828-8.828s8.828,3.531,8.828,8.828v26.483C123.586,393.71,120.055,397.241,114.759,397.241"/>
	<path style="fill:#42B05C;" d="M185.379,432.552h-35.31c-5.297,0-8.828-3.531-8.828-8.828c0-5.297,3.531-8.828,8.828-8.828h35.31
		c5.297,0,8.828,3.531,8.828,8.828C194.207,429.021,190.676,432.552,185.379,432.552 M247.172,432.552H220.69
		c-5.297,0-8.828-3.531-8.828-8.828c0-5.297,3.531-8.828,8.828-8.828h26.483c5.297,0,8.828,3.531,8.828,8.828
		C256,429.021,252.469,432.552,247.172,432.552"/>
	<path style="fill:#42B05C;" d="M264.828,88.276h-35.31c-5.297,0-8.828-3.531-8.828-8.828s3.531-8.828,8.828-8.828h35.31
		c5.297,0,8.828,3.531,8.828,8.828S270.124,88.276,264.828,88.276 M326.621,88.276h-26.483c-5.297,0-8.828-3.531-8.828-8.828
		s3.531-8.828,8.828-8.828h26.483c5.297,0,8.828,3.531,8.828,8.828S331.917,88.276,326.621,88.276 M388.414,88.276h-26.483
		c-5.297,0-8.828-3.531-8.828-8.828s3.531-8.828,8.828-8.828h26.483c5.297,0,8.828,3.531,8.828,8.828S393.71,88.276,388.414,88.276"
		/>
	<path style="fill:#42B05C;" d="M423.724,158.897c-5.297,0-8.828-3.531-8.828-8.828v-35.31c0-5.297,3.531-8.828,8.828-8.828
		s8.828,3.531,8.828,8.828v35.31C432.552,155.366,429.021,158.897,423.724,158.897 M423.724,220.69
		c-5.297,0-8.828-3.531-8.828-8.828v-26.483c0-5.297,3.531-8.828,8.828-8.828s8.828,3.531,8.828,8.828v26.483
		C432.552,217.159,429.021,220.69,423.724,220.69 M423.724,291.31c-5.297,0-8.828-3.531-8.828-8.828v-35.31
		c0-5.297,3.531-8.828,8.828-8.828s8.828,3.531,8.828,8.828v35.31C432.552,287.779,429.021,291.31,423.724,291.31"/>
</g>
<g>
	<path style="fill:#ECBA16;" d="M150.069,423.724c0,19.421-15.89,35.31-35.31,35.31s-35.31-15.89-35.31-35.31
		c0-19.421,15.89-35.31,35.31-35.31S150.069,404.303,150.069,423.724"/>
	<path style="fill:#ECBA16;" d="M423.724,114.759c19.421,0,35.31-15.89,35.31-35.31s-15.89-35.31-35.31-35.31
		s-35.31,15.89-35.31,35.31S404.303,114.759,423.724,114.759"/>
</g>
<g>
</g>
<g>
</g>
<g>
</g>
<g>
</g>
<g>
</g>
<g>
</g>
<g>
</g>
<g>
</g>
<g>
</g>
<g>
</g>
<g>
</g>
<g>
</g>
<g>
</g>
<g>
</g>
<g>
</g>
</svg>
