<?xml version="1.0" encoding="iso-8859-1"?>
<!-- Generator: Adobe Illustrator 19.0.0, SVG Export Plug-In . SVG Version: 6.00 Build 0)  -->
<svg version="1.1" id="Layer_1" xmlns="http://www.w3.org/2000/svg" xmlns:xlink="http://www.w3.org/1999/xlink" x="0px" y="0px"
	 viewBox="0 0 512 512" style="enable-background:new 0 0 512 512;" xml:space="preserve">
<path style="fill:#98D96F;" d="M146.057,80.303l-35.993,213.289l35.994,210.093h262.177c16.401,0,29.696-13.295,29.696-29.695
	V112.671L146.057,80.303z"/>
<path style="fill:#8FCC68;" d="M74.069,80.303V473.99c0,16.4,13.295,29.695,29.696,29.695h42.291V80.303H74.069z"/>
<path style="fill:#FFFFFF;" d="M130.861,28.403l-10.799,32.636c-4.003,5.387-6.374,12.053-6.374,19.264s2.373,13.877,6.374,19.263
	l10.799,32.637l307.069-19.53v-0.001V47.934L130.861,28.403z"/>
<path style="fill:#A5EB78;" d="M146.057,47.933H437.93V8.314H146.057c-39.758,0-71.987,32.23-71.987,71.987v0.001
	c0,39.757,32.23,71.987,71.987,71.987H437.93v-39.619H146.057c-17.849,0-32.369-14.52-32.369-32.369S128.209,47.933,146.057,47.933z
	"/>
<path style="fill:#FFFFFF;" d="M406.629,314.342c0,63.891-51.979,115.868-115.868,115.868c-18.877,0-37.305-4.618-53.782-13.272
	l-10.956,16.557l-35.708-70.642l78.978,5.25l-11.377,17.193c10.218,4.743,21.407,7.271,32.844,7.271
	c43.134,0,78.227-35.092,78.227-78.227s-35.092-78.227-78.227-78.227s-78.227,35.092-78.227,78.227H174.89
	c0-63.89,51.979-115.869,115.868-115.869S406.629,250.451,406.629,314.342z"/>
<path d="M276.902,364.512c-1.344-2.711-4.026-4.502-7.045-4.702l-78.978-5.25c-3.033-0.204-5.961,1.243-7.643,3.786
	c-1.682,2.544-1.872,5.793-0.496,8.515l35.708,70.642c1.364,2.7,4.063,4.469,7.083,4.646c0.165,0.009,0.331,0.015,0.496,0.015
	c2.837,0,5.501-1.421,7.079-3.805l6.855-10.36c15.936,7.136,33.347,10.88,50.803,10.88c68.571,0,124.358-55.787,124.358-124.358
	c0-68.572-55.787-124.359-124.358-124.359S166.405,245.948,166.405,314.52c0,4.689,3.8,8.49,8.49,8.49h37.642
	c4.69,0,8.49-3.801,8.49-8.49c0-38.453,31.284-69.737,69.736-69.737c9.657,0,19.032,1.961,27.863,5.829
	c4.297,1.88,9.302-0.076,11.183-4.372c1.88-4.295-0.076-9.301-4.371-11.182c-10.994-4.813-22.66-7.255-34.676-7.255
	c-44.953,0-82.026,34.379-86.303,78.227h-20.742c4.343-55.254,50.695-98.89,107.046-98.89c59.21,0,107.378,48.17,107.378,107.38
	c0,59.209-48.17,107.378-107.378,107.378c-17.283,0-34.515-4.253-49.834-12.299c-3.857-2.026-8.621-0.803-11.028,2.831l-2.892,4.369
	l-22.397-44.311l49.541,3.293l-3.313,5.007c-1.364,2.062-1.762,4.617-1.089,6.997c0.675,2.379,2.351,4.347,4.595,5.388
	c11.522,5.349,23.775,8.06,36.419,8.06c47.815,0,86.715-38.901,86.715-86.715c0-20.918-7.599-41.144-21.396-56.95
	c-3.085-3.532-8.447-3.896-11.98-0.813c-3.532,3.083-3.895,8.446-0.813,11.978c11.098,12.713,17.209,28.973,17.209,45.784
	c0,38.453-31.284,69.736-69.736,69.736c-6.809,0-13.476-0.979-19.925-2.92l5.539-8.369
	C278.043,370.442,278.244,367.221,276.902,364.512z"/>
<path d="M446.419,48.109V8.49c0-4.689-3.8-8.49-8.49-8.49H146.058c-44.375,0-80.478,36.103-80.478,80.478
	c0,2.032,0.101,4.04,0.25,6.035v90.048c0,4.689,3.8,8.49,8.49,8.49c4.69,0,8.49-3.801,8.49-8.49V130.15
	c3.141,3.991,6.649,7.677,10.476,11.01c0.268,0.235,0.538,0.469,0.808,0.701c0.551,0.466,1.108,0.926,1.671,1.378
	c0.616,0.499,1.238,0.989,1.869,1.469c0.223,0.169,0.448,0.335,0.672,0.501c11.107,8.28,24.396,13.747,38.837,15.294v334.518
	h-33.377c-11.752,0-20.957-9.161-20.957-20.855V210.52c0-4.689-3.8-8.49-8.49-8.49s-8.49,3.801-8.49,8.49v263.645
	c0,21.215,16.664,37.835,37.937,37.835h41.867h262.6c21.273,0,37.937-16.62,37.937-37.835V433.23c0-4.689-3.8-8.49-8.49-8.49
	c-4.69,0-8.49,3.801-8.49,8.49v40.935c0,11.694-9.205,20.855-20.957,20.855h-254.11V161.09h275.068v238.181
	c0,4.689,3.8,8.49,8.49,8.49c4.69,0,8.49-3.801,8.49-8.49V154.477c0.157-0.646,0.25-1.318,0.25-2.011v-39.619
	c0-0.695-0.093-1.366-0.25-2.012V50.12C446.328,49.475,446.419,48.804,446.419,48.109z M429.44,39.619H146.058
	c-22.53,0-40.859,18.329-40.859,40.859c0,22.53,18.329,40.858,40.859,40.858h283.383v22.639H146.058
	c-15.14,0-29.053-5.334-39.977-14.211c-14.186-11.651-23.272-29.414-23.272-49.287c0-0.629-0.074-1.241-0.204-1.832
	C83.58,44.48,111.657,16.98,146.058,16.98h283.383v22.639H429.44z M429.191,56.598v47.758H146.058
	c-13.167,0-23.88-10.712-23.88-23.879s10.713-23.88,23.88-23.88h283.133V56.598z"/>
<g>
</g>
<g>
</g>
<g>
</g>
<g>
</g>
<g>
</g>
<g>
</g>
<g>
</g>
<g>
</g>
<g>
</g>
<g>
</g>
<g>
</g>
<g>
</g>
<g>
</g>
<g>
</g>
<g>
</g>
</svg>
